<svg width="86" height="87" viewBox="0 0 86 87" fill="none" xmlns="http://www.w3.org/2000/svg">
<g id="Icon">
<g id="Group">
<g id="Group_2">
<g id="Group_3">
<path id="Vector" d="M58.7667 76.2692H55.9V69.1025V14.6358C55.9 14.3492 55.7567 13.9192 55.6133 13.7758L51.4567 1.30582C51.3134 0.73249 50.74 0.30249 50.1667 0.30249C49.5933 0.30249 49.02 0.73249 48.8767 1.30582L44.72 13.7758C44.5767 14.0625 44.4333 14.3492 44.4333 14.6358V69.1025V84.8692C44.4333 85.7292 45.0067 86.3025 45.8667 86.3025H54.4667C55.3267 86.3025 55.9 85.7292 55.9 84.8692V79.1358H60.2C61.06 79.1358 61.6334 78.5625 61.6334 77.7025V34.7025H58.7667V76.2692ZM47.3 16.0692H53.0333V67.6692H47.3V16.0692ZM50.1667 6.32249L52.46 13.2025H47.8734L50.1667 6.32249ZM53.0333 83.4358H47.3V70.5358H53.0333V83.4358Z" fill="#CDA274"/>
<path id="Vector_2" d="M84.5667 0.30249H68.8C67.94 0.30249 67.3667 0.875823 67.3667 1.73582V84.8692C67.3667 85.7292 67.94 86.3025 68.8 86.3025H84.5667C85.4267 86.3025 86 85.7292 86 84.8692V1.73582C86 0.875823 85.4267 0.30249 84.5667 0.30249ZM83.1334 83.4358H70.2334V73.4025H77.4V70.5358H70.2334V59.0692H77.4V56.2025H70.2334V44.7358H77.4V41.8692H70.2334V30.4025H77.4V27.5358H70.2334V16.0692H77.4V13.2025H70.2334V3.16916H83.1334V83.4358Z" fill="#CDA274"/>
<path id="Vector_3" d="M20.0667 14.6359C9.03 14.6359 0 23.6659 0 34.7025C0 42.4425 4.44333 49.4659 11.4667 52.7625V63.3692V70.5359C11.4667 71.3959 12.04 71.9692 12.9 71.9692H18.6333V76.2692H21.5V71.9692H27.2333C28.0933 71.9692 28.6667 71.3959 28.6667 70.5359V63.3692V52.7625C35.69 49.4659 40.1333 42.4425 40.1333 34.7025C40.1333 23.6659 31.1033 14.6359 20.0667 14.6359ZM25.8 69.1025H14.3333V64.8025H25.8V69.1025ZM26.66 50.6125C26.0867 50.7559 25.8 51.3292 25.8 51.9025V61.9359H14.3333V59.0692H21.5V56.2025H14.3333V51.9025C14.3333 51.3292 14.0467 50.7559 13.4733 50.6125C7.02333 47.8892 2.86667 41.5825 2.86667 34.7025C2.86667 25.2425 10.6067 17.5025 20.0667 17.5025C29.5267 17.5025 37.2667 25.2425 37.2667 34.7025C37.2667 41.5825 33.11 47.8892 26.66 50.6125Z" fill="#CDA274"/>
<path id="Vector_4" d="M23.3633 26.5325L20.0666 29.8291L16.77 26.5325L14.7633 28.5391L18.6333 32.4091V47.6025H21.5V32.4091L25.37 28.5391L23.3633 26.5325Z" fill="#CDA274"/>
</g>
</g>
</g>
</g>
</svg>
