<svg width="456" height="351" viewBox="0 0 456 351" fill="none" xmlns="http://www.w3.org/2000/svg">
<path d="M311.275 239.679C299.844 246.123 287.73 248.765 274.773 250.29C246.082 253.683 217.095 254.685 188.177 253.296C148.965 251.406 106.658 243.391 79.7656 213.653C61.1392 193.068 52.5091 163.284 57.1771 135.709C61.8223 108.111 79.6745 83.3362 103.925 70.8124C134.028 55.2828 170.051 58.8806 203.182 65.9395C236.336 72.9983 269.718 83.2224 303.305 79.7612C329.377 77.0743 356.77 66.3949 380.702 77.6208C399.943 86.6152 411.625 108.885 411.625 130.608C411.625 152.331 401.264 173.03 386.486 188.354C373.985 201.288 359.025 209.713 343.04 217.933C339.943 219.527 337.005 221.395 334.159 223.376C326.531 228.749 319.518 235.057 311.275 239.679V239.679Z" stroke="#F4EBD7" stroke-width="2"/>
<path d="M156.185 250.634C135.988 248.243 115.676 243.37 97.8467 232.69C79.9946 221.988 64.761 204.91 58.8179 184.029C52.8748 163.149 57.5883 138.557 72.8674 124.621C91.9036 107.292 120.094 110.07 144.891 105.516C176.838 99.6643 204.846 80.6964 233.514 64.848C262.16 48.9769 294.426 35.6788 326.464 42.3962C352.263 47.7928 375.512 66.7152 387.352 91.9906C399.216 117.243 399.398 148.211 387.831 173.122C371.14 209.077 334.297 228.341 298.615 240.888C272.315 250.133 245.287 257.1 217.871 261.677C207.783 263.362 197.491 264.729 187.335 263.135C177.18 261.541 167.047 256.645 160.762 247.855L156.185 250.634Z" fill="#F4EBD7"/>
<path d="M0 290.916H455.23" stroke="#102048"/>
<mask id="mask0_1321_9629" style="mask-type:alpha" maskUnits="userSpaceOnUse" x="241" y="19" width="136" height="125">
<path d="M376.129 19.6416V128.979H257.984L241.013 143.587V128.979V19.6416H376.129Z" fill="white"/>
</mask>
<g mask="url(#mask0_1321_9629)">
<path d="M376.12 149.59H240.999V19.6377H376.12V149.59Z" fill="white"/>
<path d="M366 32H251V29H366V32Z" fill="#8CBFBE"/>
<path d="M366 40H251V37H366V40Z" fill="#C6EAE9"/>
<path d="M366 48H251V45H366V48Z" fill="#C6EAE9"/>
<path d="M308.5 56H251V53H308.5V56Z" fill="#C6EAE9"/>
<path d="M366 67H251V64H366V67Z" fill="#8CBFBE"/>
<path d="M366 75H251V72H366V75Z" fill="#C6EAE9"/>
<path d="M289.333 83H251V80H289.333V83Z" fill="#C6EAE9"/>
<path d="M366 94H251V91H366V94Z" fill="#8CBFBE"/>
<path d="M366 102H251V99H366V102Z" fill="#C6EAE9"/>
<path d="M366 110H251V107H366V110Z" fill="#C6EAE9"/>
<path d="M270.167 118H251V115H270.167V118Z" fill="#C6EAE9"/>
</g>
<path d="M376.126 19.6504V128.972H257.992L241.005 143.591V128.972V19.6504H376.126Z" stroke="#C5DFDE"/>
<path d="M77.0327 312.004C77.0327 314.281 67.3552 316.125 55.4006 316.125C43.4688 316.125 33.7686 314.281 33.7686 312.004C33.7686 309.727 43.4688 307.905 55.4006 307.905C67.3552 307.905 77.0327 309.727 77.0327 312.004Z" fill="#1F3C88" fill-opacity="0.1"/>
<path fill-rule="evenodd" clip-rule="evenodd" d="M45.496 303.988C40.8053 303.988 35.5908 297.134 35.5908 292.489C35.5908 287.776 39.348 283.95 43.9932 283.95C48.6156 283.95 52.3728 287.776 52.3728 292.489C52.3728 296.952 50.5056 303.988 45.496 303.988ZM43.9932 286.797C40.9191 286.797 38.4371 289.347 38.4371 292.489C38.4371 295.973 42.6497 301.142 45.496 301.142C48.0919 301.142 49.5264 296.041 49.5264 292.489C49.5264 289.347 47.0444 286.797 43.9932 286.797V286.797Z" fill="#1F3C88"/>
<path d="M61.6627 311.412H49.3438C47.2945 311.412 45.6094 309.841 45.4273 307.791L42.877 277.097H68.6533L65.5793 307.86C65.3743 309.864 63.6893 311.412 61.6627 311.412V311.412Z" fill="#1F3C88"/>
<path d="M45.8844 240.3C45.0192 243.191 44.6321 246.152 45.1102 249.021C45.3607 250.432 45.7706 251.822 46.3171 253.165C46.9091 254.486 47.615 255.761 48.4347 256.99C49.3 258.174 50.1881 259.359 51.2128 260.452C51.4405 260.702 51.7137 261.021 51.987 261.34C52.2374 261.658 52.5107 261.954 52.7384 262.296L53.4215 263.343C53.672 263.685 53.8086 264.118 53.9908 264.482C54.1957 264.869 54.2868 265.302 54.4234 265.712C54.56 266.121 54.5828 266.577 54.6284 267.009C54.6739 267.237 54.6511 267.442 54.6511 267.67L54.6056 268.33C54.56 268.558 54.5145 268.763 54.469 268.991C54.4006 269.195 54.3551 269.423 54.264 269.605L54.0135 270.22C53.9225 270.402 53.8086 270.585 53.6948 270.789C53.6037 270.972 53.4671 271.131 53.3532 271.313C53.2166 271.473 53.1027 271.655 52.9433 271.791C52.3968 272.429 51.7593 272.93 51.0078 273.363L50.5296 272.611C51.5999 271.677 52.4651 270.425 52.7612 269.15C52.8067 268.991 52.8295 268.831 52.8295 268.649C52.8522 268.49 52.8978 268.33 52.8978 268.171L52.875 267.693C52.875 267.533 52.8522 267.351 52.8067 267.192C52.7384 266.873 52.7156 266.554 52.579 266.258C52.4424 265.939 52.3741 265.621 52.1691 265.324C52.0097 265.028 51.8731 264.71 51.6682 264.436L51.0534 263.571C50.8257 263.298 50.5752 263.047 50.3475 262.774L49.596 261.954C49.0496 261.385 48.5031 260.793 48.0021 260.178C47.4784 259.564 47.023 258.903 46.5676 258.266C45.7023 256.899 44.8825 255.51 44.3133 253.985C43.744 252.459 43.3341 250.888 43.1747 249.248C42.8559 246.015 43.6301 242.736 45.0419 239.958L45.8844 240.3Z" fill="#D3DFFF"/>
<path d="M57.0637 239.411C58.6576 240.732 59.9555 242.531 60.5476 244.626C60.8664 245.673 61.003 246.766 61.0258 247.859C61.0258 248.929 60.8664 249.999 60.6387 251.047C60.4109 252.072 60.0466 253.073 59.6595 254.03L59.3863 254.69C59.2952 254.895 59.2041 255.1 59.1358 255.305L58.9764 255.92C58.9081 256.148 58.8853 256.33 58.8625 256.535C58.7942 256.74 58.817 256.945 58.817 257.149C58.7942 257.354 58.8398 257.537 58.8625 257.719C58.8625 257.924 58.9536 258.083 58.9992 258.265C59.0903 258.447 59.1358 258.63 59.2497 258.789C59.6595 259.449 60.4109 260.019 61.2079 260.383L61.0258 261.271C59.91 261.134 58.8398 260.656 57.9973 259.768C57.7923 259.563 57.6329 259.29 57.4735 259.039C57.3369 258.766 57.1775 258.493 57.0864 258.197C57.0181 257.901 56.927 257.605 56.9043 257.309C56.8815 257.013 56.836 256.694 56.8587 256.421C56.8815 256.125 56.8587 255.829 56.927 255.556L57.0864 254.713C57.1548 254.44 57.2686 254.189 57.3369 253.939C57.428 253.666 57.5191 253.392 57.5874 253.187C57.9517 252.322 58.2022 251.411 58.4527 250.523C58.6652 249.612 58.7942 248.702 58.8398 247.791C58.8853 246.903 58.817 245.992 58.6804 245.104C58.3616 243.305 57.5191 241.62 56.4033 240.026L57.0637 239.411Z" fill="#D3DFFF"/>
<path d="M427.289 311.725C427.289 315.277 407.911 318.146 384.025 318.146C360.116 318.146 340.761 315.277 340.761 311.725C340.761 308.195 360.116 305.326 384.025 305.326C407.911 305.326 427.289 308.195 427.289 311.725Z" fill="#1F3C88" fill-opacity="0.1"/>
<path d="M386.78 266.798H380.7V207.412H386.78V266.798Z" fill="#27481F"/>
<path d="M385.254 203.428C385.163 207.709 384.776 211.329 384.434 213.675C384.184 215.473 383.956 216.521 383.956 216.521C367.379 211.124 359.773 200.855 356.608 190.494C356.312 189.538 356.062 188.604 355.857 187.648C352.51 173.234 356.995 159.48 356.995 159.48C364.601 161.074 370.202 164.376 374.347 168.657C375.045 169.386 375.705 170.137 376.328 170.911C383.979 180.498 385.436 193.682 385.254 203.428V203.428Z" fill="#49883A"/>
<path d="M406.75 174.715C406.408 186.236 401.923 199.671 388.01 212.582C386.947 213.569 385.824 214.555 384.64 215.542C384.518 215.648 384.389 215.755 384.253 215.861C384.253 215.861 381.953 212.468 379.585 206.98C379.554 206.905 379.524 206.821 379.494 206.73C378.651 204.795 377.809 202.586 377.08 200.195C376.465 198.214 375.919 196.119 375.486 193.91C373.801 185.439 373.801 175.375 378.423 165.401C381.907 157.91 388.01 150.464 397.983 143.792C397.983 143.792 407.251 157.022 406.75 174.715V174.715Z" fill="#49883A"/>
<path opacity="0.5" d="M387.326 220.254C386.339 220.376 385.375 220.452 384.434 220.482C383.842 220.497 383.257 220.497 382.681 220.482C359.864 220.141 351.121 196.459 348.935 189.013C351.69 189.423 354.263 189.924 356.608 190.493C356.312 189.537 356.062 188.603 355.857 187.647C361.39 188.489 366.013 189.719 369.838 191.222C370.157 182.524 372.753 172.869 374.347 168.656C375.045 169.385 375.705 170.136 376.328 170.911C373.868 179.017 374.119 186.987 375.485 193.909C375.918 196.118 376.464 198.213 377.079 200.194C377.261 200.801 377.451 201.393 377.648 201.97C377.762 202.266 377.853 202.562 377.967 202.858C378.058 203.131 378.172 203.427 378.263 203.7C378.4 204.042 378.514 204.361 378.65 204.702C378.741 204.884 378.81 205.089 378.878 205.294C379.075 205.795 379.28 206.273 379.493 206.729C379.493 206.744 379.493 206.751 379.493 206.751C379.523 206.827 379.553 206.903 379.584 206.979C381.952 212.467 384.252 215.86 384.252 215.86C384.388 215.753 384.517 215.647 384.639 215.541C385.823 214.554 386.946 213.567 388.009 212.581C388.351 217.021 387.326 220.254 387.326 220.254V220.254Z" fill="#27481F"/>
<path d="M384.596 219.23C384.596 219.245 384.588 219.268 384.573 219.298C384.573 219.435 384.565 219.572 384.55 219.708C384.535 219.769 384.528 219.83 384.528 219.89C384.512 219.997 384.497 220.103 384.482 220.209C384.436 220.513 384.391 220.801 384.345 221.074C384.315 221.257 384.285 221.439 384.254 221.621C383.958 223.147 383.617 224.057 383.617 224.057C381.977 224.149 380.429 224.149 378.949 224.057C351.943 222.236 346.387 188.672 346.387 188.672C347.252 188.778 348.102 188.892 348.937 189.013C351.692 189.423 354.265 189.924 356.611 190.494C366.379 192.816 372.846 196.323 377.082 200.194C378.357 201.355 379.427 202.539 380.315 203.746C382.82 207.116 383.981 210.577 384.436 213.674C384.528 214.312 384.596 214.934 384.641 215.541C384.732 216.885 384.687 218.137 384.596 219.23V219.23Z" fill="#49883A"/>
<path opacity="0.4" d="M406.749 174.716C406.567 180.477 405.36 186.716 402.469 193.137C399.577 199.536 394.977 206.116 388.009 212.583C387.979 212.599 387.948 212.621 387.918 212.652C387.508 213.031 387.091 213.411 386.666 213.79C386.544 213.912 386.415 214.026 386.279 214.132C385.747 214.602 385.201 215.073 384.639 215.544C384.594 214.936 384.525 214.314 384.434 213.676C383.979 210.58 382.817 207.118 380.313 203.748C379.425 202.542 378.354 201.357 377.079 200.196C376.464 198.215 375.918 196.12 375.485 193.911C377.019 194.822 378.385 195.771 379.584 196.758C380.427 197.464 381.178 198.17 381.884 198.898C385.436 189.585 392.609 180.044 406.749 174.716V174.716Z" fill="#27481F"/>
<path opacity="0.2" d="M384.593 219.23C384.593 219.245 384.586 219.268 384.571 219.298C384.571 219.435 384.563 219.572 384.548 219.708C384.533 219.769 384.525 219.83 384.525 219.89C384.51 219.997 384.495 220.103 384.48 220.209C384.434 220.513 384.388 220.801 384.343 221.075C384.313 221.257 384.282 221.439 384.252 221.621C383.956 223.147 383.614 224.057 383.614 224.057C381.975 224.149 380.426 224.149 378.946 224.057C378.696 222.19 377.967 215.268 379.584 206.98C379.781 205.917 380.024 204.839 380.313 203.746C382.817 207.116 383.979 210.577 384.434 213.674C384.525 214.312 384.593 214.934 384.639 215.541C384.73 216.885 384.684 218.137 384.593 219.23V219.23Z" fill="#27481F"/>
<path d="M410.575 259.216L403.903 302.913C403.152 307.786 398.962 311.383 394.044 311.383H373.983C369.633 311.383 365.831 308.56 364.51 304.529C364.343 304.013 364.214 303.474 364.123 302.913L357.451 259.216H410.575Z" fill="#FBC343"/>
<path d="M382.909 224.103C382.909 224.103 375.6 180.725 422.12 174.463C422.12 174.463 425.035 222.008 382.909 224.103Z" fill="#49883A"/>
<path opacity="0.4" d="M410.576 259.216L403.904 302.913C403.152 307.786 398.963 311.383 394.044 311.383H373.983C369.634 311.383 365.831 308.56 364.511 304.529C390.538 300.362 397.528 273.561 398.94 259.216H410.576Z" fill="#C89B35"/>
<path d="M207.623 321.924C202.818 321.924 198.082 321.901 193.459 321.833L213.68 342.395L213.293 342.418C218.712 342.987 222.014 343.738 222.014 344.558C222.014 346.334 203.274 345.173 203.274 345.173C203.274 345.173 155.364 357.765 149.717 345.924C148.533 343.42 156.093 342.258 166.658 341.735C172.647 338.41 180.503 329.188 175.789 321.491C132.662 320.262 101.375 316.596 101.375 312.247C101.375 306.918 148.943 302.592 207.623 302.592C266.28 302.592 313.848 306.918 313.848 312.247C313.848 317.598 266.28 321.924 207.623 321.924V321.924Z" fill="#1F3C88" fill-opacity="0.1"/>
<path d="M323.23 241.248C321.818 264.36 310.182 287.449 291.078 300.155C268.33 315.298 236.496 311.951 210.583 313.863C188.177 315.548 165.611 316.983 143.182 314.592C124.829 312.634 106.294 305.37 97.5272 287.54C88.7378 269.665 87.7814 245.916 96.5709 227.836C99.3717 222.052 103.129 216.929 107.546 212.466C108.252 211.714 109.004 211.008 109.755 210.302C110.271 209.832 110.795 209.369 111.326 208.913C112.131 208.215 112.958 207.532 113.808 206.864C114.081 206.636 114.362 206.416 114.651 206.204C114.924 205.991 115.205 205.779 115.493 205.566C115.782 205.354 116.07 205.149 116.359 204.951C116.571 204.8 116.784 204.648 116.996 204.496C117.36 204.238 117.725 203.98 118.089 203.722C121.368 201.513 124.829 199.577 128.381 197.915C131.843 196.276 135.395 194.909 138.993 193.794C150.788 190.128 163.084 188.83 175.266 187.236C201.065 183.843 227.365 182.682 253.369 182.704C274.614 182.704 298.524 185.892 312.71 204.109C320.725 214.401 324.027 228.086 323.23 241.248V241.248Z" fill="#EE6F57"/>
<path d="M281.332 194.726C284.451 191.014 290.804 191.128 287.89 194.088C284.998 197.071 279.51 202.217 279.51 202.217C279.51 202.217 278.212 198.438 281.332 194.726Z" fill="#F9B384"/>
<path d="M146.077 219.661L139.815 260.079L132.141 257.916C130.866 256.823 129.727 255.593 128.703 254.272C127.45 254.067 126.198 253.612 124.968 252.906C119.777 249.9 114.767 242.227 112.809 234.234C112.581 233.301 113.15 232.39 114.061 232.162C114.972 231.912 115.906 232.504 116.133 233.414C117.705 239.859 121.576 246.234 125.56 249.217C124.604 247.145 123.898 244.982 123.488 242.75C122.145 235.373 123.853 228.838 126.972 222.234C124.08 223.213 121.052 222.758 118.502 221.027C115.063 218.705 112.923 214.629 108.642 213.763C108.004 213.627 107.617 213.057 107.549 212.465C108.255 211.714 109.006 211.008 109.758 210.302C110.274 209.832 110.797 209.369 111.329 208.913L111.352 208.89C112.156 208.192 112.976 207.517 113.811 206.864C114.084 206.636 114.365 206.416 114.653 206.204C114.927 205.991 115.207 205.778 115.496 205.566C115.784 205.353 116.073 205.148 116.361 204.951C116.574 204.799 116.786 204.648 116.999 204.496C117.363 204.238 117.727 203.98 118.092 203.722C121.371 201.513 124.832 199.577 128.384 197.915L146.077 219.661Z" fill="#B35341"/>
<path d="M150.629 225.055C134.758 218.884 123.737 212.304 117.338 207.932C113.194 205.085 111.099 200.099 111.942 195.135L120.139 147.453C120.982 142.535 124.238 138.368 128.815 136.409C141.931 130.785 154.705 127.551 165.999 126.003C165.999 126.003 172.307 125.502 180.367 126.299C185.673 126.8 197.81 130.398 205.529 132.789C209.878 134.132 213.385 137.411 215.024 141.646C218.258 150.003 223.518 164.076 225.203 171.681C230.987 197.958 230.03 196.023 230.03 196.023L236.019 236.441L172.534 239.993L156.322 232.592L150.629 225.055Z" fill="#708CD5"/>
<path d="M173.237 105.716L158.232 102.232C150.262 84.8128 158.505 71.993 169.321 74.3383C184.281 69.0783 189.906 80.6003 189.906 80.6003L173.237 105.716Z" fill="#102048"/>
<path d="M181.937 113.205V133.585C181.937 138.367 178.066 142.238 173.284 142.238C166.817 142.238 161.58 136.978 161.58 130.511V113.205H181.937Z" fill="#F9B384"/>
<path d="M181.937 121.657V132.769C172.851 132.837 166.84 121.11 166.84 121.11L181.937 121.657Z" fill="#E28B6D"/>
<path d="M190.91 110.636C190.364 113.46 189.567 116.352 188.451 118.902C186.493 123.365 183.51 126.758 178.933 126.872C168.254 127.077 160.011 112.481 160.011 112.481L161.719 92.5565L169.825 83.4482L192.186 97.27C192.186 97.27 192.231 103.737 190.91 110.636V110.636Z" fill="#F9B384"/>
<path d="M158.666 96.6981L161.353 84.2426L177.224 79.1875L189.907 80.5993C200.928 78.4816 206.052 92.3489 194.234 99.385C182.416 106.444 171.258 91.848 171.258 91.848C163.562 97.6772 161.353 106.649 161.353 106.649L158.666 96.6981Z" fill="#102048"/>
<path opacity="0.4" d="M154.476 206.269C149.125 197.571 134.643 196.182 134.643 196.182L141.132 159.681C141.155 163.779 140.267 177.328 144.935 189.282C148.237 197.821 161.808 186.732 172.578 209.981L154.476 206.269Z" fill="#1F3C88"/>
<path d="M141.453 159.069C141.066 162.188 140.588 165.308 140.087 168.405C139.609 171.524 139.062 174.621 138.538 177.718C137.992 180.815 137.423 183.904 136.831 186.985L135.897 191.631C135.556 193.156 135.237 194.705 134.895 196.23L134.417 196.139C134.599 194.591 134.827 193.02 135.055 191.471L135.76 186.803C136.261 183.691 136.785 180.594 137.332 177.513C137.924 174.416 138.447 171.319 139.085 168.222C139.677 165.148 140.292 162.052 140.998 158.978L141.453 159.069Z" fill="#1F3C88"/>
<path d="M204.345 153.283C205.21 157.336 206.007 161.412 206.781 165.488C207.578 169.541 208.284 173.64 209.058 177.716C209.772 181.784 210.478 185.868 211.176 189.967L212.155 196.092C212.474 198.141 212.793 200.191 213.089 202.24L212.633 202.331C212.201 200.305 211.791 198.255 211.381 196.229L210.197 190.126C209.423 186.058 208.671 181.982 207.943 177.898C207.237 173.822 206.508 169.746 205.848 165.648C205.164 161.572 204.504 157.473 203.912 153.374L204.345 153.283Z" fill="#1F3C88"/>
<path opacity="0.4" d="M217.417 225.057L189.341 226.765L189.136 218.408C206.988 217.839 208.126 179.516 207.352 172.115L217.417 225.057Z" fill="#1F3C88"/>
<path d="M170.69 217.385C183.351 211.966 185.764 212.171 187.472 212.262C193.324 212.535 201.704 224.216 201.704 224.216L201.567 226.334H169.552L170.69 217.385Z" fill="#E28B6D"/>
<path d="M219.396 230.227H179.98V224.261H219.396V230.227Z" fill="white"/>
<path d="M273.019 230.224H204.502L219.872 169.017H288.389L273.019 230.224Z" fill="#FBC343"/>
<path d="M273.021 230.224L204.322 230.93L205.37 227.15C250.524 199.62 272.452 204.175 279.215 205.199L273.021 230.224Z" fill="#C89B35"/>
<path d="M280.51 218.791C280.1 221.683 279.941 225.919 271.014 225.372L268.373 224.029L270.878 221.273L276.252 218.541L280.51 218.791Z" fill="#F9B384"/>
<path d="M281.35 211.007C281.35 211.007 286.246 217.405 281.328 219.364C275.999 221.504 270.876 221.276 270.876 221.276C273.153 214.878 280.553 215.31 280.553 215.31L281.35 211.007Z" fill="#F9B384"/>
<path d="M281.513 206.884C281.513 206.884 288.23 213.146 281.968 214.899C273.133 217.381 270.401 217.563 270.401 217.563C269.922 212.872 278.712 209.821 278.712 209.821L281.513 206.884Z" fill="#F9B384"/>
<path d="M280.122 201.442C280.122 201.442 289.321 207.021 280.691 210.164C272.061 213.283 270.011 213.238 270.011 213.238C269.556 208.547 278.801 206.93 278.801 206.93L280.122 201.442Z" fill="#F9B384"/>
<path d="M270.013 213.237C270.013 213.237 280.055 211.825 283.037 209.411" stroke="#E28B6D" stroke-width="2.5"/>
<path d="M270.398 217.565C270.398 217.565 280.827 216.085 284.106 213.808" stroke="#E28B6D" stroke-width="2.5"/>
<path d="M270.876 221.276C270.876 221.276 277.07 221.504 280.553 219.796" stroke="#E28B6D" stroke-width="2.5"/>
<path d="M185.921 293.756L209.535 300.473C191.227 314.044 174.718 310.447 173.671 311.016L185.921 293.756Z" fill="#102048"/>
<path fill-rule="evenodd" clip-rule="evenodd" d="M261.635 247.715C265.05 246.417 268.648 245.62 272.291 245.346C273.248 245.278 274.227 245.255 275.115 245.597C276.003 245.939 276.777 246.735 276.8 247.692C276.823 249.035 275.479 249.946 274.272 250.515C271.586 251.836 268.762 252.838 265.825 253.544C267.1 253.521 268.375 253.794 268.967 254.842C269.878 256.39 268.557 258.28 267.191 259.419C261.362 264.155 253.574 265.749 244.853 267.275C227.752 270.303 212.2 269.779 184.875 267.798L175.471 255.798L230.12 242.523L270.014 235.1C271.608 233.187 273.339 231.388 275.252 229.749C276.322 228.815 278.007 227.95 279.054 228.929C280.033 229.885 279.35 231.547 278.576 232.663C274.181 238.857 267.851 243.365 261.635 247.715V247.715ZM261.612 247.715C261.597 247.73 261.582 247.737 261.566 247.737C261.551 247.753 261.544 247.76 261.544 247.76C261.559 247.745 261.582 247.73 261.612 247.715V247.715Z" fill="#B35341"/>
<path d="M187.061 237.877C187.061 237.877 240.275 212.533 257.649 213.672C275.001 214.811 274.431 236.443 267.896 245.847C261.338 255.228 245.968 267.752 189.338 264.063L187.061 237.877Z" fill="#102048"/>
<path d="M213.68 342.395C210.811 343.215 206.712 343.397 201.088 342.509C201.088 342.509 193.802 344.399 186.629 345.902C181.779 346.904 176.974 347.723 174.538 347.632C174.325 347.632 174.113 347.625 173.9 347.609C169.186 347.268 163.243 344.809 160.101 341.302C160.101 341.287 160.093 341.279 160.078 341.279C159.213 340.3 158.553 339.253 158.211 338.16C156.503 332.831 160.101 326.387 179.661 327.708C179.661 327.708 186.105 326.205 187.631 321.446C189.134 316.71 177.953 293.939 177.953 293.939L193.893 283.123L209.536 300.497C209.536 300.497 211.904 316.14 211.904 321.264C211.904 321.264 218.553 330.759 219.51 334.926C220.102 337.59 218.781 340.96 213.68 342.395Z" fill="#D3DFFF"/>
<path d="M124.077 198.208C125.899 197.502 127.743 196.955 129.633 196.432C130.567 196.158 131.523 195.931 132.48 195.726C132.965 195.635 133.459 195.559 133.96 195.498C134.202 195.453 134.453 195.422 134.711 195.407C134.984 195.392 135.25 195.399 135.508 195.43C137.535 195.635 139.402 196.272 141.246 196.955C143.068 197.661 144.867 198.435 146.62 199.278C148.396 200.121 150.104 201.054 151.812 202.033C153.497 203.012 155.159 204.037 156.776 205.13C159.986 207.339 163.06 209.775 165.725 212.644L165.383 212.986C163.956 211.696 162.468 210.474 160.92 209.32C159.394 208.159 157.8 207.066 156.161 206.041C152.95 203.923 149.557 202.079 146.096 200.371C144.389 199.506 142.612 198.709 140.836 198.026C139.06 197.343 137.216 196.637 135.417 196.386C135.189 196.363 134.961 196.341 134.757 196.341C134.529 196.363 134.301 196.386 134.051 196.409C133.58 196.454 133.109 196.523 132.639 196.614C131.698 196.766 130.757 196.948 129.815 197.16C127.948 197.593 126.058 198.094 124.237 198.663L124.077 198.208Z" fill="#1F3C88"/>
<path d="M132.982 267.616L161.446 260.489L168.459 270.599C168.459 270.599 155.708 269.461 150.812 271.169C146.235 272.763 139.95 272.307 133.552 272.74L132.982 267.616Z" fill="#B35341"/>
<path d="M133.825 254.09C127.289 243.547 127.289 222.78 135.532 213.376C144.959 202.651 165.134 198.598 175.677 211.122C186.197 223.646 205.552 269.46 209.537 300.474C209.537 300.496 188.201 293.369 173.673 311.016C173.673 311.016 154.614 267.479 150.629 251.54L139.813 260.079L133.825 254.09Z" fill="#1F3C88"/>
<path d="M156.114 267.754L147.689 268.3C146.573 268.368 145.48 268.642 144.433 269.074C139.332 271.215 122.801 277.841 114.285 276.953C104.129 275.905 98.8234 266.524 105.746 259.488C112.668 252.474 143.795 253.135 143.795 253.135C147.78 250.493 150.627 251.541 150.627 251.541L156.114 267.754Z" fill="#D3DFFF"/>
<path d="M163.29 115.281C154.227 112.776 151.768 103.782 156.367 102.051C160.967 100.32 163.039 107.22 163.039 107.22L163.29 115.281Z" fill="#F9B384"/>
<path d="M158.166 145.383C160.42 146.977 162.834 148.343 165.407 149.322C167.957 150.278 170.667 150.893 173.377 150.825C176.064 150.802 178.75 150.119 181.164 148.889L182.075 148.434C182.371 148.275 182.644 148.07 182.94 147.865C183.487 147.5 184.079 147.136 184.58 146.681L185.399 146.02L185.787 145.702C185.923 145.588 186.037 145.451 186.151 145.337C186.637 144.851 187.13 144.366 187.631 143.88L187.973 144.176C187.532 144.722 187.077 145.261 186.606 145.793C186.492 145.929 186.379 146.066 186.265 146.18L185.878 146.544L185.103 147.295C184.603 147.796 184.01 148.184 183.441 148.616C183.145 148.821 182.872 149.049 182.553 149.231L181.642 149.777C179.138 151.166 176.268 151.941 173.377 151.963C170.508 151.963 167.661 151.326 165.043 150.21C162.424 149.094 160.01 147.569 157.893 145.724L158.166 145.383Z" fill="#1F3C88"/>
<path d="M145.893 233.345L148.375 241.975C149.217 244.844 149.991 247.736 150.879 250.605C151.722 253.451 152.587 256.32 153.475 259.167C153.931 260.601 154.386 262.013 154.864 263.425C155.115 264.131 155.32 264.859 155.593 265.542C155.836 266.256 156.079 266.962 156.322 267.66L155.912 267.842C155.274 266.476 154.674 265.095 154.113 263.698C153.566 262.309 153.065 260.897 152.542 259.485C151.517 256.662 150.629 253.793 149.786 250.924C148.967 248.032 148.147 245.14 147.441 242.225C146.712 239.333 146.029 236.396 145.46 233.459L145.893 233.345Z" fill="#102048"/>
<path opacity="0.1" d="M213.679 342.394C210.81 343.214 206.711 343.396 201.087 342.508C201.087 342.508 189.041 345.605 181.436 346.811C189.246 345.24 200.631 335.563 199.356 329.438C210.605 333.149 213.656 338.773 213.679 342.394V342.394Z" fill="#1F3C88"/>
<path opacity="0.4" d="M183.419 343.465C181.961 345.241 179.798 346.471 177.544 347.063C176.337 347.382 175.13 347.564 173.901 347.609C169.187 347.268 163.244 344.808 160.102 341.302C160.102 341.287 160.094 341.279 160.079 341.279C159.737 340.824 159.441 340.345 159.168 339.867C160.83 341.416 162.652 342.691 164.61 343.67C165.612 344.148 166.591 344.581 167.639 344.9C168.14 345.104 168.686 345.218 169.21 345.355C169.711 345.514 170.257 345.583 170.804 345.674C175.039 346.38 179.57 345.947 183.419 343.465V343.465Z" fill="#1F3C88"/>
<path d="M160.99 108.221C160.876 107.584 160.58 107.014 160.239 106.491C159.897 105.967 159.464 105.466 158.986 105.125C158.508 104.783 157.984 104.624 157.529 104.851C157.074 105.102 156.686 105.648 156.368 106.24L156.049 106.126C156.185 105.443 156.436 104.692 157.142 104.214C157.506 103.963 157.984 103.872 158.394 103.963C158.804 104.032 159.168 104.214 159.487 104.441C160.102 104.897 160.557 105.466 160.876 106.126C161.195 106.764 161.423 107.47 161.309 108.221H160.99Z" fill="#E28B6D"/>
<path d="M188.062 108.039C187.857 109.019 187.129 109.702 186.423 109.565C185.694 109.406 185.284 108.495 185.489 107.516C185.694 106.537 186.423 105.853 187.151 105.99C187.857 106.149 188.267 107.06 188.062 108.039V108.039Z" fill="#102048"/>
<path d="M176.973 107.608C176.814 108.61 176.108 109.315 175.379 109.179C174.674 109.065 174.218 108.177 174.378 107.198C174.537 106.196 175.243 105.49 175.971 105.604C176.677 105.718 177.133 106.629 176.973 107.608V107.608Z" fill="#102048"/>
<path d="M181.687 108.949C181.755 109.746 181.778 110.565 181.801 111.339C181.823 111.635 181.96 111.909 182.211 112.182C182.461 112.455 182.78 112.728 183.053 113.116C183.19 113.321 183.281 113.571 183.349 113.821C183.395 114.072 183.395 114.3 183.395 114.55C183.349 115.006 183.19 115.484 182.871 115.871C182.712 116.053 182.507 116.212 182.279 116.326C182.051 116.44 181.801 116.508 181.55 116.486C181.072 116.463 180.639 116.281 180.298 116.03L180.457 115.734C180.822 115.848 181.186 115.962 181.527 115.894C181.846 115.848 182.097 115.666 182.279 115.415C182.62 114.892 182.666 114.072 182.324 113.594C182.165 113.321 181.869 113.047 181.596 112.706C181.323 112.364 181.049 111.886 181.072 111.362C181.118 110.542 181.231 109.723 181.345 108.926L181.687 108.949Z" fill="#E28B6D"/>
<path d="M172.51 104.167C172.965 103.734 173.512 103.347 174.104 103.074C174.719 102.801 175.402 102.664 176.085 102.71C176.791 102.733 177.451 103.006 177.997 103.393C178.544 103.803 178.977 104.327 179.273 104.896L179.022 105.101C178.544 104.691 178.089 104.304 177.61 104.03C177.109 103.757 176.586 103.598 176.016 103.552C174.923 103.461 173.808 103.894 172.715 104.44L172.51 104.167Z" fill="#102048"/>
<path d="M184.1 105.148C184.282 104.556 184.783 104.078 185.329 103.782C185.898 103.486 186.536 103.372 187.151 103.372C187.788 103.395 188.403 103.554 188.95 103.873C189.496 104.192 189.952 104.67 190.179 105.239L189.906 105.421C189.132 104.647 188.153 104.26 187.128 104.237C186.126 104.215 185.056 104.488 184.396 105.308L184.1 105.148Z" fill="#102048"/>
<path d="M176.315 118.515L183.875 119.061C183.875 119.061 179.663 124.64 176.315 118.515Z" fill="white"/>
<path opacity="0.4" d="M190.91 110.635C190.363 113.459 189.567 116.351 188.451 118.901C186.971 118.195 185.969 116.692 185.969 114.939C185.969 112.548 187.927 110.59 190.318 110.59C190.515 110.59 190.713 110.605 190.91 110.635V110.635Z" fill="#EE6F57"/>
<path opacity="0.4" d="M176.039 113.96C176.039 116.374 174.08 118.309 171.689 118.309C169.276 118.309 167.317 116.374 167.317 113.96C167.317 111.546 169.276 109.588 171.689 109.588C174.08 109.588 176.039 111.546 176.039 113.96Z" fill="#EE6F57"/>
<path d="M114.988 119.705L98.9346 113.17C95.5873 114.468 91.9212 115.197 88.1185 115.197C71.6098 115.197 58.2207 101.808 58.2207 85.2989C58.2207 68.813 71.6098 55.4238 88.1185 55.4238C104.627 55.4238 117.994 68.813 117.994 85.2989C117.994 93.0181 115.079 100.031 110.297 105.337L114.988 119.705Z" fill="white" stroke="#8CBFBE"/>
<path d="M77.961 86.0297C77.961 87.8058 76.5265 89.2176 74.7504 89.2176C72.997 89.2176 71.5625 87.8058 71.5625 86.0297C71.5625 84.2763 72.997 82.8418 74.7504 82.8418C76.5265 82.8418 77.961 84.2763 77.961 86.0297Z" fill="#8CBFBE"/>
<path d="M91.3028 86.0297C91.3028 87.8058 89.8683 89.2176 88.115 89.2176C86.3388 89.2176 84.9043 87.8058 84.9043 86.0297C84.9043 84.2763 86.3388 82.8418 88.115 82.8418C89.8683 82.8418 91.3028 84.2763 91.3028 86.0297Z" fill="#8CBFBE"/>
<path d="M104.645 86.0297C104.645 87.8058 103.211 89.2176 101.457 89.2176C99.6813 89.2176 98.2695 87.8058 98.2695 86.0297C98.2695 84.2763 99.6813 82.8418 101.457 82.8418C103.211 82.8418 104.645 84.2763 104.645 86.0297Z" fill="#8CBFBE"/>
<path d="M192.775 7.05699V32.2868C192.775 35.6113 190.042 38.3438 186.718 38.3438H144.797L142.179 51.5963L133.366 38.3438H127.924C124.6 38.3438 121.867 35.6113 121.867 32.2868V7.05699C121.867 3.73248 124.6 1 127.924 1H186.718C190.042 1 192.775 3.73248 192.775 7.05699Z" fill="white" stroke="#8CBFBE"/>
<path d="M182.508 13.0667H132.14V10.1748H182.508V13.0667Z" fill="#8CBFBE"/>
<path d="M182.508 20.6936H132.14V17.8018H182.508V20.6936Z" fill="#C6EAE9"/>
<path d="M182.508 28.3216H132.14V25.4297H182.508V28.3216Z" fill="#C6EAE9"/>
</svg>
