<svg width="320" height="524" viewBox="0 0 320 524" fill="none" xmlns="http://www.w3.org/2000/svg">
<g filter="url(#filter0_d_1809_13860)">
<rect x="40" y="40" width="240" height="444" rx="15" fill="white" shape-rendering="crispEdges"/>
<path d="M40 55C40 46.7157 46.7157 40 55 40H280V128H40V55Z" fill="#FEEFE7"/>
<path d="M96.8427 88.112C95.7974 88.112 94.8374 87.8667 93.9627 87.376C93.088 86.8853 92.3947 86.208 91.8827 85.344C91.3707 84.4693 91.1147 83.4827 91.1147 82.384C91.1147 81.296 91.3707 80.32 91.8827 79.456C92.3947 78.5813 93.088 77.8987 93.9627 77.408C94.8374 76.9173 95.7974 76.672 96.8427 76.672C97.8987 76.672 98.8587 76.9173 99.7227 77.408C100.597 77.8987 101.285 78.5813 101.787 79.456C102.299 80.32 102.555 81.296 102.555 82.384C102.555 83.4827 102.299 84.4693 101.787 85.344C101.285 86.208 100.597 86.8853 99.7227 87.376C98.848 87.8667 97.888 88.112 96.8427 88.112ZM96.8427 86.112C97.5147 86.112 98.1067 85.9627 98.6187 85.664C99.1307 85.3547 99.5307 84.9173 99.8187 84.352C100.107 83.7867 100.251 83.1307 100.251 82.384C100.251 81.6373 100.107 80.9867 99.8187 80.432C99.5307 79.8667 99.1307 79.4347 98.6187 79.136C98.1067 78.8373 97.5147 78.688 96.8427 78.688C96.1707 78.688 95.5734 78.8373 95.0507 79.136C94.5387 79.4347 94.1387 79.8667 93.8507 80.432C93.5627 80.9867 93.4187 81.6373 93.4187 82.384C93.4187 83.1307 93.5627 83.7867 93.8507 84.352C94.1387 84.9173 94.5387 85.3547 95.0507 85.664C95.5734 85.9627 96.1707 86.112 96.8427 86.112ZM109.133 79.008C110.189 79.008 111.043 79.344 111.693 80.016C112.344 80.6773 112.669 81.6053 112.669 82.8V88H110.429V83.104C110.429 82.4 110.253 81.8613 109.901 81.488C109.549 81.104 109.069 80.912 108.461 80.912C107.843 80.912 107.352 81.104 106.989 81.488C106.637 81.8613 106.461 82.4 106.461 83.104V88H104.221V79.136H106.461V80.24C106.76 79.856 107.139 79.5573 107.597 79.344C108.067 79.12 108.579 79.008 109.133 79.008ZM123.039 83.376C123.039 83.696 123.018 83.984 122.975 84.24H116.495C116.549 84.88 116.773 85.3813 117.167 85.744C117.562 86.1067 118.047 86.288 118.623 86.288C119.455 86.288 120.047 85.9307 120.399 85.216H122.815C122.559 86.0693 122.069 86.7733 121.343 87.328C120.618 87.872 119.727 88.144 118.671 88.144C117.818 88.144 117.05 87.9573 116.367 87.584C115.695 87.2 115.167 86.6613 114.783 85.968C114.41 85.2747 114.223 84.4747 114.223 83.568C114.223 82.6507 114.41 81.8453 114.783 81.152C115.157 80.4587 115.679 79.9253 116.351 79.552C117.023 79.1787 117.797 78.992 118.671 78.992C119.514 78.992 120.266 79.1733 120.927 79.536C121.599 79.8987 122.117 80.416 122.479 81.088C122.853 81.7493 123.039 82.512 123.039 83.376ZM120.719 82.736C120.709 82.16 120.501 81.7013 120.095 81.36C119.69 81.008 119.194 80.832 118.607 80.832C118.053 80.832 117.583 81.0027 117.199 81.344C116.826 81.6747 116.597 82.1387 116.511 82.736H120.719ZM131.095 80.976V85.264C131.095 85.5627 131.164 85.7813 131.303 85.92C131.452 86.048 131.697 86.112 132.039 86.112H133.079V88H131.671C129.783 88 128.839 87.0827 128.839 85.248V80.976H127.783V79.136H128.839V76.944H131.095V79.136H133.079V80.976H131.095ZM138.626 88.144C137.773 88.144 137.005 87.9573 136.322 87.584C135.639 87.2 135.101 86.6613 134.706 85.968C134.322 85.2747 134.13 84.4747 134.13 83.568C134.13 82.6613 134.327 81.8613 134.722 81.168C135.127 80.4747 135.677 79.9413 136.37 79.568C137.063 79.184 137.837 78.992 138.69 78.992C139.543 78.992 140.317 79.184 141.01 79.568C141.703 79.9413 142.247 80.4747 142.642 81.168C143.047 81.8613 143.25 82.6613 143.25 83.568C143.25 84.4747 143.042 85.2747 142.626 85.968C142.221 86.6613 141.666 87.2 140.962 87.584C140.269 87.9573 139.49 88.144 138.626 88.144ZM138.626 86.192C139.031 86.192 139.41 86.096 139.762 85.904C140.125 85.7013 140.413 85.4027 140.626 85.008C140.839 84.6133 140.946 84.1333 140.946 83.568C140.946 82.7253 140.722 82.08 140.274 81.632C139.837 81.1733 139.298 80.944 138.658 80.944C138.018 80.944 137.479 81.1733 137.042 81.632C136.615 82.08 136.402 82.7253 136.402 83.568C136.402 84.4107 136.61 85.0613 137.026 85.52C137.453 85.968 137.986 86.192 138.626 86.192ZM153.89 88.112C152.844 88.112 151.884 87.8667 151.01 87.376C150.135 86.8853 149.442 86.208 148.93 85.344C148.418 84.4693 148.162 83.4827 148.162 82.384C148.162 81.296 148.418 80.32 148.93 79.456C149.442 78.5813 150.135 77.8987 151.01 77.408C151.884 76.9173 152.844 76.672 153.89 76.672C154.946 76.672 155.906 76.9173 156.77 77.408C157.644 77.8987 158.332 78.5813 158.834 79.456C159.346 80.32 159.602 81.296 159.602 82.384C159.602 83.4827 159.346 84.4693 158.834 85.344C158.332 86.208 157.644 86.8853 156.77 87.376C155.895 87.8667 154.935 88.112 153.89 88.112ZM153.89 86.112C154.562 86.112 155.154 85.9627 155.666 85.664C156.178 85.3547 156.578 84.9173 156.866 84.352C157.154 83.7867 157.298 83.1307 157.298 82.384C157.298 81.6373 157.154 80.9867 156.866 80.432C156.578 79.8667 156.178 79.4347 155.666 79.136C155.154 78.8373 154.562 78.688 153.89 78.688C153.218 78.688 152.62 78.8373 152.098 79.136C151.586 79.4347 151.186 79.8667 150.898 80.432C150.61 80.9867 150.466 81.6373 150.466 82.384C150.466 83.1307 150.61 83.7867 150.898 84.352C151.186 84.9173 151.586 85.3547 152.098 85.664C152.62 85.9627 153.218 86.112 153.89 86.112ZM166.18 79.008C167.236 79.008 168.089 79.344 168.74 80.016C169.391 80.6773 169.716 81.6053 169.716 82.8V88H167.476V83.104C167.476 82.4 167.3 81.8613 166.948 81.488C166.596 81.104 166.116 80.912 165.508 80.912C164.889 80.912 164.399 81.104 164.036 81.488C163.684 81.8613 163.508 82.4 163.508 83.104V88H161.268V79.136H163.508V80.24C163.807 79.856 164.185 79.5573 164.644 79.344C165.113 79.12 165.625 79.008 166.18 79.008ZM180.086 83.376C180.086 83.696 180.065 83.984 180.022 84.24H173.542C173.596 84.88 173.82 85.3813 174.214 85.744C174.609 86.1067 175.094 86.288 175.67 86.288C176.502 86.288 177.094 85.9307 177.446 85.216H179.862C179.606 86.0693 179.116 86.7733 178.39 87.328C177.665 87.872 176.774 88.144 175.718 88.144C174.865 88.144 174.097 87.9573 173.414 87.584C172.742 87.2 172.214 86.6613 171.83 85.968C171.457 85.2747 171.27 84.4747 171.27 83.568C171.27 82.6507 171.457 81.8453 171.83 81.152C172.204 80.4587 172.726 79.9253 173.398 79.552C174.07 79.1787 174.844 78.992 175.718 78.992C176.561 78.992 177.313 79.1733 177.974 79.536C178.646 79.8987 179.164 80.416 179.526 81.088C179.9 81.7493 180.086 82.512 180.086 83.376ZM177.766 82.736C177.756 82.16 177.548 81.7013 177.142 81.36C176.737 81.008 176.241 80.832 175.654 80.832C175.1 80.832 174.63 81.0027 174.246 81.344C173.873 81.6747 173.644 82.1387 173.558 82.736H177.766ZM184.99 82.4C184.99 81.3013 185.235 80.32 185.726 79.456C186.227 78.5813 186.904 77.904 187.758 77.424C188.622 76.9333 189.587 76.688 190.654 76.688C191.902 76.688 192.995 77.008 193.934 77.648C194.872 78.288 195.528 79.1733 195.902 80.304H193.326C193.07 79.7707 192.707 79.3707 192.238 79.104C191.779 78.8373 191.246 78.704 190.638 78.704C189.987 78.704 189.406 78.8587 188.894 79.168C188.392 79.4667 187.998 79.8933 187.71 80.448C187.432 81.0027 187.294 81.6533 187.294 82.4C187.294 83.136 187.432 83.7867 187.71 84.352C187.998 84.9067 188.392 85.3387 188.894 85.648C189.406 85.9467 189.987 86.096 190.638 86.096C191.246 86.096 191.779 85.9627 192.238 85.696C192.707 85.4187 193.07 85.0133 193.326 84.48H195.902C195.528 85.6213 194.872 86.512 193.934 87.152C193.006 87.7813 191.912 88.096 190.654 88.096C189.587 88.096 188.622 87.856 187.758 87.376C186.904 86.8853 186.227 86.208 185.726 85.344C185.235 84.48 184.99 83.4987 184.99 82.4ZM200.055 76.16V88H197.815V76.16H200.055ZM201.692 83.536C201.692 82.64 201.868 81.8453 202.22 81.152C202.583 80.4587 203.068 79.9253 203.676 79.552C204.295 79.1787 204.983 78.992 205.74 78.992C206.401 78.992 206.977 79.1253 207.468 79.392C207.969 79.6587 208.369 79.9947 208.668 80.4V79.136H210.924V88H208.668V86.704C208.38 87.12 207.98 87.4667 207.468 87.744C206.967 88.0107 206.385 88.144 205.724 88.144C204.977 88.144 204.295 87.952 203.676 87.568C203.068 87.184 202.583 86.6453 202.22 85.952C201.868 85.248 201.692 84.4427 201.692 83.536ZM208.668 83.568C208.668 83.024 208.561 82.56 208.348 82.176C208.135 81.7813 207.847 81.4827 207.484 81.28C207.121 81.0667 206.732 80.96 206.316 80.96C205.9 80.96 205.516 81.0613 205.164 81.264C204.812 81.4667 204.524 81.7653 204.3 82.16C204.087 82.544 203.98 83.0027 203.98 83.536C203.98 84.0693 204.087 84.5387 204.3 84.944C204.524 85.3387 204.812 85.6427 205.164 85.856C205.527 86.0693 205.911 86.176 206.316 86.176C206.732 86.176 207.121 86.0747 207.484 85.872C207.847 85.6587 208.135 85.36 208.348 84.976C208.561 84.5813 208.668 84.112 208.668 83.568ZM216.504 88.144C215.778 88.144 215.128 88.016 214.552 87.76C213.976 87.4933 213.517 87.136 213.176 86.688C212.845 86.24 212.664 85.744 212.632 85.2H214.888C214.93 85.5413 215.096 85.824 215.384 86.048C215.682 86.272 216.05 86.384 216.488 86.384C216.914 86.384 217.245 86.2987 217.48 86.128C217.725 85.9573 217.848 85.7387 217.848 85.472C217.848 85.184 217.698 84.9707 217.4 84.832C217.112 84.6827 216.648 84.5227 216.008 84.352C215.346 84.192 214.802 84.0267 214.376 83.856C213.96 83.6853 213.597 83.424 213.288 83.072C212.989 82.72 212.84 82.2453 212.84 81.648C212.84 81.1573 212.978 80.7093 213.256 80.304C213.544 79.8987 213.949 79.5787 214.472 79.344C215.005 79.1093 215.629 78.992 216.344 78.992C217.4 78.992 218.242 79.2587 218.872 79.792C219.501 80.3147 219.848 81.024 219.912 81.92H217.768C217.736 81.568 217.586 81.2907 217.32 81.088C217.064 80.8747 216.717 80.768 216.28 80.768C215.874 80.768 215.56 80.8427 215.336 80.992C215.122 81.1413 215.016 81.3493 215.016 81.616C215.016 81.9147 215.165 82.144 215.464 82.304C215.762 82.4533 216.226 82.608 216.856 82.768C217.496 82.928 218.024 83.0933 218.44 83.264C218.856 83.4347 219.213 83.7013 219.512 84.064C219.821 84.416 219.981 84.8853 219.992 85.472C219.992 85.984 219.848 86.4427 219.56 86.848C219.282 87.2533 218.877 87.5733 218.344 87.808C217.821 88.032 217.208 88.144 216.504 88.144ZM225.223 88.144C224.497 88.144 223.847 88.016 223.271 87.76C222.695 87.4933 222.236 87.136 221.895 86.688C221.564 86.24 221.383 85.744 221.351 85.2H223.607C223.649 85.5413 223.815 85.824 224.103 86.048C224.401 86.272 224.769 86.384 225.207 86.384C225.633 86.384 225.964 86.2987 226.199 86.128C226.444 85.9573 226.567 85.7387 226.567 85.472C226.567 85.184 226.417 84.9707 226.119 84.832C225.831 84.6827 225.367 84.5227 224.727 84.352C224.065 84.192 223.521 84.0267 223.095 83.856C222.679 83.6853 222.316 83.424 222.007 83.072C221.708 82.72 221.559 82.2453 221.559 81.648C221.559 81.1573 221.697 80.7093 221.975 80.304C222.263 79.8987 222.668 79.5787 223.191 79.344C223.724 79.1093 224.348 78.992 225.063 78.992C226.119 78.992 226.961 79.2587 227.591 79.792C228.22 80.3147 228.567 81.024 228.631 81.92H226.487C226.455 81.568 226.305 81.2907 226.039 81.088C225.783 80.8747 225.436 80.768 224.999 80.768C224.593 80.768 224.279 80.8427 224.055 80.992C223.841 81.1413 223.735 81.3493 223.735 81.616C223.735 81.9147 223.884 82.144 224.183 82.304C224.481 82.4533 224.945 82.608 225.575 82.768C226.215 82.928 226.743 83.0933 227.159 83.264C227.575 83.4347 227.932 83.7013 228.231 84.064C228.54 84.416 228.7 84.8853 228.711 85.472C228.711 85.984 228.567 86.4427 228.279 86.848C228.001 87.2533 227.596 87.5733 227.063 87.808C226.54 88.032 225.927 88.144 225.223 88.144ZM109.821 104.864C110.119 104.341 110.557 103.915 111.133 103.584C111.709 103.253 112.365 103.088 113.101 103.088C113.89 103.088 114.599 103.275 115.229 103.648C115.858 104.021 116.354 104.549 116.717 105.232C117.079 105.904 117.261 106.688 117.261 107.584C117.261 108.469 117.079 109.259 116.717 109.952C116.354 110.645 115.853 111.184 115.213 111.568C114.583 111.952 113.879 112.144 113.101 112.144C112.343 112.144 111.677 111.979 111.101 111.648C110.535 111.317 110.109 110.896 109.821 110.384V112H108.365V100.16H109.821V104.864ZM115.773 107.584C115.773 106.923 115.639 106.347 115.373 105.856C115.106 105.365 114.743 104.992 114.285 104.736C113.837 104.48 113.341 104.352 112.797 104.352C112.263 104.352 111.767 104.485 111.309 104.752C110.861 105.008 110.498 105.387 110.221 105.888C109.954 106.379 109.821 106.949 109.821 107.6C109.821 108.261 109.954 108.843 110.221 109.344C110.498 109.835 110.861 110.213 111.309 110.48C111.767 110.736 112.263 110.864 112.797 110.864C113.341 110.864 113.837 110.736 114.285 110.48C114.743 110.213 115.106 109.835 115.373 109.344C115.639 108.843 115.773 108.256 115.773 107.584ZM126.729 103.232L121.449 116.128H119.945L121.673 111.904L118.137 103.232H119.753L122.505 110.336L125.225 103.232H126.729Z" fill="#1B1816"/>
<path d="M131.755 107.536C131.755 106.64 131.931 105.845 132.283 105.152C132.645 104.459 133.131 103.925 133.739 103.552C134.357 103.179 135.045 102.992 135.803 102.992C136.464 102.992 137.04 103.125 137.531 103.392C138.032 103.659 138.432 103.995 138.731 104.4V103.136H140.987V112H138.731V110.704C138.443 111.12 138.043 111.467 137.531 111.744C137.029 112.011 136.448 112.144 135.787 112.144C135.04 112.144 134.357 111.952 133.739 111.568C133.131 111.184 132.645 110.645 132.283 109.952C131.931 109.248 131.755 108.443 131.755 107.536ZM138.731 107.568C138.731 107.024 138.624 106.56 138.411 106.176C138.197 105.781 137.909 105.483 137.547 105.28C137.184 105.067 136.795 104.96 136.379 104.96C135.963 104.96 135.579 105.061 135.227 105.264C134.875 105.467 134.587 105.765 134.363 106.16C134.149 106.544 134.043 107.003 134.043 107.536C134.043 108.069 134.149 108.539 134.363 108.944C134.587 109.339 134.875 109.643 135.227 109.856C135.589 110.069 135.973 110.176 136.379 110.176C136.795 110.176 137.184 110.075 137.547 109.872C137.909 109.659 138.197 109.36 138.411 108.976C138.624 108.581 138.731 108.112 138.731 107.568ZM146.566 112.144C145.841 112.144 145.19 112.016 144.614 111.76C144.038 111.493 143.58 111.136 143.238 110.688C142.908 110.24 142.726 109.744 142.694 109.2H144.95C144.993 109.541 145.158 109.824 145.446 110.048C145.745 110.272 146.113 110.384 146.55 110.384C146.977 110.384 147.308 110.299 147.542 110.128C147.788 109.957 147.91 109.739 147.91 109.472C147.91 109.184 147.761 108.971 147.462 108.832C147.174 108.683 146.71 108.523 146.07 108.352C145.409 108.192 144.865 108.027 144.438 107.856C144.022 107.685 143.66 107.424 143.35 107.072C143.052 106.72 142.902 106.245 142.902 105.648C142.902 105.157 143.041 104.709 143.318 104.304C143.606 103.899 144.012 103.579 144.534 103.344C145.068 103.109 145.692 102.992 146.406 102.992C147.462 102.992 148.305 103.259 148.934 103.792C149.564 104.315 149.91 105.024 149.974 105.92H147.83C147.798 105.568 147.649 105.291 147.382 105.088C147.126 104.875 146.78 104.768 146.342 104.768C145.937 104.768 145.622 104.843 145.398 104.992C145.185 105.141 145.078 105.349 145.078 105.616C145.078 105.915 145.228 106.144 145.526 106.304C145.825 106.453 146.289 106.608 146.918 106.768C147.558 106.928 148.086 107.093 148.502 107.264C148.918 107.435 149.276 107.701 149.574 108.064C149.884 108.416 150.044 108.885 150.054 109.472C150.054 109.984 149.91 110.443 149.622 110.848C149.345 111.253 148.94 111.573 148.406 111.808C147.884 112.032 147.27 112.144 146.566 112.144ZM157.141 112L154.133 108.224V112H151.893V100.16H154.133V106.896L157.109 103.136H160.021L156.117 107.584L160.053 112H157.141ZM163.477 100.832V112H161.237V100.832H163.477ZM167.93 100.832V112H165.69V100.832H167.93ZM177.743 100.832V102.64H174.767V112H172.527V102.64H169.551V100.832H177.743ZM180.513 102.08C180.119 102.08 179.788 101.957 179.521 101.712C179.265 101.456 179.137 101.141 179.137 100.768C179.137 100.395 179.265 100.085 179.521 99.84C179.788 99.584 180.119 99.456 180.513 99.456C180.908 99.456 181.233 99.584 181.489 99.84C181.756 100.085 181.889 100.395 181.889 100.768C181.889 101.141 181.756 101.456 181.489 101.712C181.233 101.957 180.908 102.08 180.513 102.08ZM181.617 103.136V112H179.377V103.136H181.617ZM183.255 107.536C183.255 106.64 183.431 105.845 183.783 105.152C184.145 104.459 184.631 103.925 185.239 103.552C185.857 103.179 186.545 102.992 187.303 102.992C187.964 102.992 188.54 103.125 189.031 103.392C189.532 103.659 189.932 103.995 190.231 104.4V103.136H192.487V112H190.231V110.704C189.943 111.12 189.543 111.467 189.031 111.744C188.529 112.011 187.948 112.144 187.287 112.144C186.54 112.144 185.857 111.952 185.239 111.568C184.631 111.184 184.145 110.645 183.783 109.952C183.431 109.248 183.255 108.443 183.255 107.536ZM190.231 107.568C190.231 107.024 190.124 106.56 189.911 106.176C189.697 105.781 189.409 105.483 189.047 105.28C188.684 105.067 188.295 104.96 187.879 104.96C187.463 104.96 187.079 105.061 186.727 105.264C186.375 105.467 186.087 105.765 185.863 106.16C185.649 106.544 185.543 107.003 185.543 107.536C185.543 108.069 185.649 108.539 185.863 108.944C186.087 109.339 186.375 109.643 186.727 109.856C187.089 110.069 187.473 110.176 187.879 110.176C188.295 110.176 188.684 110.075 189.047 109.872C189.409 109.659 189.697 109.36 189.911 108.976C190.124 108.581 190.231 108.112 190.231 107.568ZM199.586 103.008C200.642 103.008 201.496 103.344 202.146 104.016C202.797 104.677 203.122 105.605 203.122 106.8V112H200.882V107.104C200.882 106.4 200.706 105.861 200.354 105.488C200.002 105.104 199.522 104.912 198.914 104.912C198.296 104.912 197.805 105.104 197.442 105.488C197.09 105.861 196.914 106.4 196.914 107.104V112H194.674V103.136H196.914V104.24C197.213 103.856 197.592 103.557 198.05 103.344C198.52 103.12 199.032 103.008 199.586 103.008ZM208.644 112.144C207.919 112.144 207.268 112.016 206.692 111.76C206.116 111.493 205.658 111.136 205.316 110.688C204.986 110.24 204.804 109.744 204.772 109.2H207.028C207.071 109.541 207.236 109.824 207.524 110.048C207.823 110.272 208.191 110.384 208.628 110.384C209.055 110.384 209.386 110.299 209.62 110.128C209.866 109.957 209.988 109.739 209.988 109.472C209.988 109.184 209.839 108.971 209.54 108.832C209.252 108.683 208.788 108.523 208.148 108.352C207.487 108.192 206.943 108.027 206.516 107.856C206.1 107.685 205.738 107.424 205.428 107.072C205.13 106.72 204.98 106.245 204.98 105.648C204.98 105.157 205.119 104.709 205.396 104.304C205.684 103.899 206.09 103.579 206.612 103.344C207.146 103.109 207.77 102.992 208.484 102.992C209.54 102.992 210.383 103.259 211.012 103.792C211.642 104.315 211.988 105.024 212.052 105.92H209.908C209.876 105.568 209.727 105.291 209.46 105.088C209.204 104.875 208.858 104.768 208.42 104.768C208.015 104.768 207.7 104.843 207.476 104.992C207.263 105.141 207.156 105.349 207.156 105.616C207.156 105.915 207.306 106.144 207.604 106.304C207.903 106.453 208.367 106.608 208.996 106.768C209.636 106.928 210.164 107.093 210.58 107.264C210.996 107.435 211.354 107.701 211.652 108.064C211.962 108.416 212.122 108.885 212.132 109.472C212.132 109.984 211.988 110.443 211.7 110.848C211.423 111.253 211.018 111.573 210.484 111.808C209.962 112.032 209.348 112.144 208.644 112.144Z" fill="#FF6A0B"/>
<path d="M160 142C154.486 142 150 146.486 150 152C150 157.514 154.486 162 160 162C165.514 162 170 157.514 170 152C170 146.486 165.514 142 160 142ZM165.068 149.881L159.652 155.297C159.489 155.46 159.276 155.542 159.062 155.542C158.849 155.542 158.636 155.46 158.473 155.297L155.765 152.589C155.439 152.263 155.439 151.737 155.765 151.411C156.091 151.085 156.617 151.085 156.943 151.411L159.062 153.53L163.89 148.703C164.216 148.377 164.742 148.377 165.068 148.703C165.394 149.028 165.394 149.555 165.068 149.881Z" fill="#1AAF5E"/>
<path d="M40 176H280V224H40V176Z" fill="#FFFCFA"/>
<path d="M160 190C154.486 190 150 194.486 150 200C150 205.514 154.486 210 160 210C165.514 210 170 205.514 170 200C170 194.486 165.514 190 160 190ZM165.068 197.881L159.652 203.297C159.489 203.46 159.276 203.542 159.062 203.542C158.849 203.542 158.636 203.46 158.473 203.297L155.765 200.589C155.439 200.263 155.439 199.737 155.765 199.411C156.091 199.085 156.617 199.085 156.943 199.411L159.062 201.53L163.89 196.703C164.216 196.377 164.742 196.377 165.068 196.703C165.394 197.028 165.394 197.555 165.068 197.881Z" fill="#1AAF5E"/>
<path d="M160 238C154.486 238 150 242.486 150 248C150 253.514 154.486 258 160 258C165.514 258 170 253.514 170 248C170 242.486 165.514 238 160 238ZM165.068 245.881L159.652 251.297C159.489 251.46 159.276 251.542 159.062 251.542C158.849 251.542 158.636 251.46 158.473 251.297L155.765 248.589C155.439 248.263 155.439 247.737 155.765 247.411C156.091 247.085 156.617 247.085 156.943 247.411L159.062 249.53L163.89 244.703C164.216 244.377 164.742 244.377 165.068 244.703C165.394 245.028 165.394 245.555 165.068 245.881Z" fill="#1AAF5E"/>
<path d="M40 272H280V320H40V272Z" fill="#FFFCFA"/>
<path d="M160 286C154.486 286 150 290.486 150 296C150 301.514 154.486 306 160 306C165.514 306 170 301.514 170 296C170 290.486 165.514 286 160 286ZM165.068 293.881L159.652 299.297C159.489 299.46 159.276 299.542 159.062 299.542C158.849 299.542 158.636 299.46 158.473 299.297L155.765 296.589C155.439 296.263 155.439 295.737 155.765 295.411C156.091 295.085 156.617 295.085 156.943 295.411L159.062 297.53L163.89 292.703C164.216 292.377 164.742 292.377 165.068 292.703C165.394 293.028 165.394 293.555 165.068 293.881Z" fill="#1AAF5E"/>
<path d="M160 334C154.486 334 150 338.486 150 344C150 349.514 154.486 354 160 354C165.514 354 170 349.514 170 344C170 338.486 165.514 334 160 334ZM165.068 341.881L159.652 347.297C159.489 347.46 159.276 347.542 159.062 347.542C158.849 347.542 158.636 347.46 158.473 347.297L155.765 344.589C155.439 344.263 155.439 343.737 155.765 343.411C156.091 343.085 156.617 343.085 156.943 343.411L159.062 345.53L163.89 340.703C164.216 340.377 164.742 340.377 165.068 340.703C165.394 341.028 165.394 341.555 165.068 341.881Z" fill="#1AAF5E"/>
<path d="M40 368H280V416H40V368Z" fill="#FFFCFA"/>
<path d="M160 382C154.486 382 150 386.486 150 392C150 397.514 154.486 402 160 402C165.514 402 170 397.514 170 392C170 386.486 165.514 382 160 382ZM165.068 389.881L159.652 395.297C159.489 395.46 159.276 395.542 159.062 395.542C158.849 395.542 158.636 395.46 158.473 395.297L155.765 392.589C155.439 392.263 155.439 391.737 155.765 391.411C156.091 391.085 156.617 391.085 156.943 391.411L159.062 393.53L163.89 388.703C164.216 388.377 164.742 388.377 165.068 388.703C165.394 389.028 165.394 389.555 165.068 389.881Z" fill="#1AAF5E"/>
<path d="M160 430C154.486 430 150 434.486 150 440C150 445.514 154.486 450 160 450C165.514 450 170 445.514 170 440C170 434.486 165.514 430 160 430ZM165.068 437.881L159.652 443.297C159.489 443.46 159.276 443.542 159.062 443.542C158.849 443.542 158.636 443.46 158.473 443.297L155.765 440.589C155.439 440.263 155.439 439.737 155.765 439.411C156.091 439.085 156.617 439.085 156.943 439.411L159.062 441.53L163.89 436.703C164.216 436.377 164.742 436.377 165.068 436.703C165.394 437.028 165.394 437.555 165.068 437.881Z" fill="#1AAF5E"/>
</g>
<defs>
<filter id="filter0_d_1809_13860" x="0" y="0" width="320" height="524" filterUnits="userSpaceOnUse" color-interpolation-filters="sRGB">
<feFlood flood-opacity="0" result="BackgroundImageFix"/>
<feColorMatrix in="SourceAlpha" type="matrix" values="0 0 0 0 0 0 0 0 0 0 0 0 0 0 0 0 0 0 127 0" result="hardAlpha"/>
<feOffset/>
<feGaussianBlur stdDeviation="20"/>
<feComposite in2="hardAlpha" operator="out"/>
<feColorMatrix type="matrix" values="0 0 0 0 0 0 0 0 0 0 0 0 0 0 0 0 0 0 0.05 0"/>
<feBlend mode="normal" in2="BackgroundImageFix" result="effect1_dropShadow_1809_13860"/>
<feBlend mode="normal" in="SourceGraphic" in2="effect1_dropShadow_1809_13860" result="shape"/>
</filter>
</defs>
</svg>
