<svg width="84" height="84" viewBox="0 0 84 84" fill="none" xmlns="http://www.w3.org/2000/svg">
<path d="M64.0726 53.701L76.8516 74.0235L66.29 74.2445L61.5146 83.6666L48.4114 62.826L53.0907 55.3454L64.0708 53.6992L64.0726 53.701Z" fill="#FFAA45"/>
<path d="M39.2119 62.826L26.1087 83.6666L21.3333 74.2445L10.7717 74.0235L23.5507 53.701L23.5525 53.6992H33.4855L39.2119 62.826Z" fill="#FFAA45"/>
<path d="M71.817 25.4363C72.4964 27.9797 76.4203 30.1845 76.4203 32.9417C76.4203 35.699 72.4964 37.9037 71.817 40.4471C71.1123 43.0776 73.3877 46.9453 72.0561 49.2497C70.7029 51.5866 66.2047 51.5413 64.308 53.4381C62.4067 55.3394 62.4598 59.8303 60.1195 61.1863C57.8152 62.5178 53.9474 60.2424 51.317 60.9471C48.7703 61.6276 46.573 65.5504 43.8116 65.5504C41.0503 65.5504 38.8514 61.627 36.3061 60.9471C33.6757 60.2424 29.808 62.5178 27.5036 61.1863C25.1639 59.8307 25.2152 55.3381 23.3152 53.4381C21.4185 51.5413 16.9203 51.5866 15.567 49.2497C14.2355 46.9453 16.5109 43.0776 15.8061 40.4471C15.1268 37.9037 11.2029 35.699 11.2029 32.9417C11.2029 30.1845 15.1268 27.9797 15.8061 25.4363C16.5109 22.8058 14.2355 18.9381 15.567 16.6337C16.9203 14.2968 21.4185 14.3421 23.3152 12.4453C25.2119 10.5486 25.1666 6.0504 27.5036 4.69714C29.808 3.36562 33.6757 5.64098 36.3061 4.93627C38.8496 4.25692 41.0543 0.333008 43.8116 0.333008C46.5688 0.333008 48.7735 4.25692 51.317 4.93627C53.9474 5.64098 57.8152 3.36562 60.1195 4.69714C62.4565 6.0504 62.4112 10.5486 64.308 12.4453C66.2047 14.3421 70.7029 14.2968 72.0561 16.6337C73.3877 18.9381 71.1123 22.8058 71.817 25.4363V25.4363Z" fill="#FFDA45"/>
<path d="M43.8115 14.8262C53.8169 14.8262 61.9274 22.9367 61.9274 32.9421C61.9274 42.9475 53.8169 51.0581 43.8115 51.0581C33.8061 51.0581 25.6956 42.9475 25.6956 32.9421C25.6956 22.9367 33.8061 14.8262 43.8115 14.8262Z" fill="#FF6A0B"/>
<path d="M53.0907 30.8591L48.4512 35.3808L49.5454 41.7667L43.8117 38.7522L38.078 41.7667L39.1722 35.3808L34.5327 30.8591L40.9439 29.9279L43.8117 24.1182L46.6795 29.9279L53.0907 30.8591Z" fill="#F3FAFF"/>
<path d="M81.8551 18.4492C82.8551 18.4492 83.6666 19.2608 83.6666 20.2608C83.6666 21.2608 82.8551 22.0724 81.8551 22.0724C80.8551 22.0724 80.0435 21.2608 80.0435 20.2608C80.0435 19.2608 80.8551 18.4492 81.8551 18.4492Z" fill="#FFDA45"/>
<path d="M80.0433 52.8691C81.0433 52.8691 81.8549 53.6807 81.8549 54.6807C81.8549 55.6807 81.0433 56.4923 80.0433 56.4923C79.0433 56.4923 78.2317 55.6807 78.2317 54.6807C78.2317 53.6807 79.0433 52.8691 80.0433 52.8691Z" fill="#FFDA45"/>
<path d="M45.6231 74.6084C46.6231 74.6084 47.4347 75.42 47.4347 76.42C47.4347 77.42 46.6231 78.2316 45.6231 78.2316C44.6231 78.2316 43.8115 77.42 43.8115 76.42C43.8115 75.42 44.6231 74.6084 45.6231 74.6084Z" fill="#FFDA45"/>
<path d="M13.0145 0.333008C14.0145 0.333008 14.8261 1.1446 14.8261 2.1446C14.8261 3.1446 14.0145 3.9562 13.0145 3.9562C12.0145 3.9562 11.2029 3.1446 11.2029 2.1446C11.2029 1.1446 12.0145 0.333008 13.0145 0.333008Z" fill="#FFDA45"/>
<path d="M2.14485 32.9414C3.14485 32.9414 3.95644 33.753 3.95644 34.753C3.95644 35.753 3.14485 36.5646 2.14485 36.5646C1.14485 36.5646 0.333252 35.753 0.333252 34.753C0.333252 33.753 1.14485 32.9414 2.14485 32.9414Z" fill="#FFDA45"/>
</svg>
