<svg width="30" height="30" viewBox="0 0 30 30" fill="none" xmlns="http://www.w3.org/2000/svg">
<path d="M15 27.5C21.8921 27.5 27.5 21.8926 27.5 15C27.5 13.8103 27.3339 12.6379 27.0051 11.5151C26.8431 10.963 26.2666 10.6459 25.7129 10.8079C25.1603 10.9694 24.8442 11.548 25.0057 12.1001C25.2781 13.0329 25.4167 14.0089 25.4167 15C25.4167 20.7437 20.7437 25.4167 15 25.4167C9.25634 25.4167 4.58333 20.7437 4.58333 15C4.58333 9.25634 9.25634 4.58333 15 4.58333C17.0874 4.58333 19.0957 5.19368 20.8077 6.34801C21.2843 6.66972 21.9323 6.54332 22.2535 6.06674C22.575 5.58965 22.4496 4.94217 21.9725 4.62072C19.9151 3.23344 17.5042 2.5 15 2.5C8.10786 2.5 2.5 8.10735 2.5 15C2.5 21.8926 8.10786 27.5 15 27.5Z" fill="#F65F12" stroke="#F65F12" stroke-width="0.6"/>
<path d="M25.7215 4.88799L14.9996 15.6093L11.5695 12.1797C11.1626 11.773 10.5034 11.773 10.0965 12.1797C9.68984 12.5866 9.68984 13.2457 10.0965 13.6526L14.2632 17.8193C14.4669 18.023 14.7329 18.1245 14.9996 18.1245C15.2664 18.1245 15.5324 18.023 15.7361 17.8193L27.1945 6.36097C27.6011 5.95407 27.6011 5.29489 27.1945 4.88799C26.7876 4.48135 26.1284 4.48135 25.7215 4.88799Z" fill="#F65F12" stroke="#F65F12" stroke-width="0.6"/>
</svg>
