<svg width="30" height="30" viewBox="0 0 30 30" fill="none" xmlns="http://www.w3.org/2000/svg">
<path d="M11.0909 12.408C11.1443 11.3413 11.5176 10.52 12.2109 9.944C12.9149 9.35733 13.8376 9.064 14.9789 9.064C15.7576 9.064 16.4243 9.20267 16.9789 9.48C17.5336 9.74667 17.9496 10.1147 18.2269 10.584C18.5149 11.0427 18.6589 11.5653 18.6589 12.152C18.6589 12.824 18.4829 13.3947 18.1309 13.864C17.7896 14.3227 17.3789 14.632 16.8989 14.792V14.856C17.5176 15.048 17.9976 15.3893 18.3389 15.88C18.6909 16.3707 18.8669 17 18.8669 17.768C18.8669 18.408 18.7176 18.9787 18.4189 19.48C18.1309 19.9813 17.6989 20.376 17.1229 20.664C16.5576 20.9413 15.8749 21.08 15.0749 21.08C13.8696 21.08 12.8883 20.776 12.1309 20.168C11.3736 19.56 10.9736 18.664 10.9309 17.48H13.1069C13.1283 18.0027 13.3043 18.424 13.6349 18.744C13.9763 19.0533 14.4403 19.208 15.0269 19.208C15.5709 19.208 15.9869 19.0587 16.2749 18.76C16.5736 18.4507 16.7229 18.056 16.7229 17.576C16.7229 16.936 16.5203 16.4773 16.1149 16.2C15.7096 15.9227 15.0803 15.784 14.2269 15.784H13.7629V13.944H14.2269C15.7416 13.944 16.4989 13.4373 16.4989 12.424C16.4989 11.9653 16.3603 11.608 16.0829 11.352C15.8163 11.096 15.4269 10.968 14.9149 10.968C14.4136 10.968 14.0243 11.1067 13.7469 11.384C13.4803 11.6507 13.3256 11.992 13.2829 12.408H11.0909Z" fill="#F65F12"/>
<rect x="1" y="1" width="28" height="28" rx="14" stroke="#F65F12" stroke-width="2"/>
</svg>
