<svg width="30" height="30" viewBox="0 0 30 30" fill="none" xmlns="http://www.w3.org/2000/svg">
<path d="M11.9583 18.472C12.9823 17.6187 13.7983 16.9093 14.4062 16.344C15.0143 15.768 15.5209 15.1707 15.9263 14.552C16.3316 13.9333 16.5343 13.3253 16.5343 12.728C16.5343 12.184 16.4063 11.7573 16.1503 11.448C15.8943 11.1387 15.4996 10.984 14.9663 10.984C14.4329 10.984 14.0223 11.1653 13.7343 11.528C13.4463 11.88 13.2969 12.3653 13.2863 12.984H11.1103C11.1529 11.704 11.5316 10.7333 12.2463 10.072C12.9716 9.41067 13.8889 9.08 14.9983 9.08C16.2143 9.08 17.1476 9.40533 17.7983 10.056C18.4489 10.696 18.7743 11.544 18.7743 12.6C18.7743 13.432 18.5503 14.2267 18.1023 14.984C17.6543 15.7413 17.1423 16.4027 16.5663 16.968C15.9903 17.5227 15.2383 18.1947 14.3103 18.984H19.0303V20.84H11.1263V19.176L11.9583 18.472Z" fill="#F65F12"/>
<rect x="1" y="1" width="28" height="28" rx="14" stroke="#F65F12" stroke-width="2"/>
</svg>
