<svg xmlns="http://www.w3.org/2000/svg" width="17" height="17" viewBox="0 0 17 17" fill="none">
  <path d="M11.8763 15.1284H11.3429V13.7951V3.66177C11.3429 3.60844 11.3163 3.52844 11.2896 3.50177L10.5163 1.18177C10.4896 1.0751 10.3829 0.995102 10.2763 0.995102C10.1696 0.995102 10.0629 1.0751 10.0363 1.18177L9.26293 3.50177C9.23626 3.5551 9.20959 3.60844 9.20959 3.66177V13.7951V16.7284C9.20959 16.8884 9.31626 16.9951 9.47626 16.9951H11.0763C11.2363 16.9951 11.3429 16.8884 11.3429 16.7284V15.6618H12.1429C12.3029 15.6618 12.4096 15.5551 12.4096 15.3951V7.3951H11.8763V15.1284ZM9.74293 3.92844H10.8096V13.5284H9.74293V3.92844ZM10.2763 2.1151L10.7029 3.3951H9.8496L10.2763 2.1151ZM10.8096 16.4618H9.74293V14.0618H10.8096V16.4618Z" fill="#CDA274"/>
  <path d="M16.6762 0.995102H13.7429C13.5829 0.995102 13.4762 1.10177 13.4762 1.26177V16.7284C13.4762 16.8884 13.5829 16.9951 13.7429 16.9951H16.6762C16.8362 16.9951 16.9429 16.8884 16.9429 16.7284V1.26177C16.9429 1.10177 16.8362 0.995102 16.6762 0.995102ZM16.4095 16.4618H14.0095V14.5951H15.3429V14.0618H14.0095V11.9284H15.3429V11.3951H14.0095V9.26177H15.3429V8.72844H14.0095V6.5951H15.3429V6.06177H14.0095V3.92844H15.3429V3.3951H14.0095V1.52844H16.4095V16.4618Z" fill="#CDA274"/>
  <path d="M4.6762 3.66177C2.62287 3.66177 0.942871 5.34177 0.942871 7.3951C0.942871 8.8351 1.76954 10.1418 3.0762 10.7551V12.7284V14.0618C3.0762 14.2218 3.18287 14.3284 3.34287 14.3284H4.40954V15.1284H4.94287V14.3284H6.00954C6.16954 14.3284 6.2762 14.2218 6.2762 14.0618V12.7284V10.7551C7.58287 10.1418 8.40954 8.8351 8.40954 7.3951C8.40954 5.34177 6.72954 3.66177 4.6762 3.66177ZM5.74287 13.7951H3.60954V12.9951H5.74287V13.7951ZM5.90287 10.3551C5.7962 10.3818 5.74287 10.4884 5.74287 10.5951V12.4618H3.60954V11.9284H4.94287V11.3951H3.60954V10.5951C3.60954 10.4884 3.5562 10.3818 3.44954 10.3551C2.24954 9.84843 1.4762 8.6751 1.4762 7.3951C1.4762 5.6351 2.9162 4.1951 4.6762 4.1951C6.4362 4.1951 7.8762 5.6351 7.8762 7.3951C7.8762 8.6751 7.10287 9.84843 5.90287 10.3551Z" fill="#CDA274"/>
  <path d="M5.28957 5.87511L4.67624 6.48844L4.06291 5.87511L3.68958 6.24844L4.40958 6.96844V9.79511H4.94291V6.96844L5.66291 6.24844L5.28957 5.87511Z" fill="#CDA274"/>
</svg>