<svg width="277" height="191" viewBox="0 0 277 191" fill="none" xmlns="http://www.w3.org/2000/svg">
<path d="M133.396 1.60727L87.8789 2.09375L88.5533 65.1962L134.07 64.7097L133.396 1.60727Z" stroke="#263238" stroke-width="1.25474" stroke-miterlimit="10"/>
<path d="M127.883 9.42611L93.5586 9.79297L94.0672 57.3811L128.392 57.0142L127.883 9.42611Z" stroke="#263238" stroke-width="1.25474" stroke-miterlimit="10"/>
<path d="M217.188 33.3017L185.473 33.6406L185.943 77.6052L217.658 77.2662L217.188 33.3017Z" stroke="#263238" stroke-width="1.25474" stroke-miterlimit="10"/>
<path d="M213.347 38.7475L189.43 39.0032L189.784 72.159L213.702 71.9034L213.347 38.7475Z" stroke="#263238" stroke-width="1.25474" stroke-miterlimit="10"/>
<path d="M258.733 116.138C258.733 116.138 259.327 113.93 259.326 113.788C259.543 112.116 258.975 108.758 257.266 107.954C256.979 107.829 256.669 107.766 256.355 107.768C256.042 107.771 255.733 107.84 255.448 107.97C255.163 108.1 254.908 108.289 254.701 108.524C254.494 108.759 254.338 109.035 254.245 109.334C253.801 110.576 254.392 112.121 255.09 113.171C255.907 114.399 258.726 116.138 258.733 116.138Z" fill="#263238"/>
<path d="M225.213 115.768C226.574 116.372 229.886 116.238 229.893 116.237C229.899 116.237 229.152 114.075 229.089 113.946C228.349 112.433 226.023 109.947 224.152 110.221C223.844 110.274 223.55 110.392 223.29 110.567C223.03 110.742 222.81 110.969 222.645 111.235C222.479 111.5 222.371 111.798 222.328 112.108C222.285 112.418 222.308 112.734 222.395 113.034C222.718 114.329 224.058 115.28 225.213 115.768Z" fill="#263238"/>
<path d="M230.286 108.995L230.316 108.995C230.248 109.527 230.18 110.097 230.119 110.729C230.02 111.886 229.916 113.204 229.894 114.627C229.858 116.172 229.911 117.718 230.055 119.257C230.209 120.98 230.515 122.687 230.969 124.356L230.97 124.411C230.668 123.951 229.776 122.68 229.713 122.569C228.593 121.307 225.698 119.52 223.968 120.275C223.684 120.408 223.431 120.6 223.225 120.838C223.02 121.076 222.867 121.354 222.777 121.655C222.687 121.956 222.661 122.273 222.702 122.585C222.743 122.896 222.849 123.196 223.013 123.464C223.644 124.619 225.208 125.184 226.453 125.35C227.859 125.539 230.812 124.685 231.046 124.577C231.548 126.26 232.164 127.907 232.892 129.505C233.304 130.441 233.753 131.351 234.22 132.299C233.944 131.906 233.693 131.562 233.655 131.513C232.541 130.251 229.64 128.464 227.911 129.224C227.622 129.358 227.366 129.551 227.158 129.792C226.95 130.032 226.797 130.314 226.707 130.619C226.617 130.924 226.593 131.245 226.637 131.559C226.681 131.874 226.792 132.176 226.962 132.444C227.593 133.606 229.157 134.165 230.408 134.337C231.659 134.509 234.199 133.795 234.865 133.603C235.048 133.953 235.225 134.31 235.408 134.667C236.28 136.358 237.164 138.049 237.973 139.729C238.258 140.344 238.518 140.917 238.784 141.514C238.539 141.164 238.332 140.9 238.294 140.832C237.18 139.57 234.279 137.783 232.549 138.544C232.266 138.677 232.013 138.869 231.809 139.106C231.604 139.344 231.452 139.622 231.362 139.922C231.271 140.222 231.245 140.538 231.286 140.849C231.326 141.16 231.431 141.459 231.594 141.727C232.225 142.889 233.789 143.447 235.04 143.613C236.291 143.779 238.585 143.148 239.362 142.917C239.609 143.533 239.863 144.149 240.08 144.765C240.215 145.184 240.38 145.578 240.489 145.997C240.599 146.417 240.733 146.836 240.855 147.23C241.055 148.038 241.274 148.865 241.45 149.654C241.579 150.203 241.69 150.728 241.801 151.259C241.522 150.643 240.953 149.511 240.897 149.413C239.985 148 237.389 145.796 235.563 146.279C235.263 146.369 234.985 146.52 234.747 146.724C234.509 146.928 234.317 147.18 234.182 147.463C234.048 147.746 233.974 148.054 233.966 148.367C233.958 148.68 234.016 148.992 234.136 149.281C234.607 150.513 236.044 151.32 237.254 151.672C238.581 152.066 241.514 151.664 241.879 151.623C242.068 152.499 242.237 153.35 242.388 154.159C242.861 156.696 243.175 158.863 243.39 160.468L244.657 160.455C244.411 158.819 244.041 156.584 243.487 153.943C243.298 153.055 243.084 152.092 242.838 151.136C243.717 150.765 244.574 150.343 245.404 149.872C246.379 150.907 248.872 152.104 249.189 152.256C248.864 153.088 248.539 153.895 248.219 154.647C247.224 157.008 246.299 158.965 245.591 160.42L247.05 160.405C247.69 158.988 248.481 157.186 249.318 155.074C249.656 154.23 249.998 153.323 250.341 152.386C250.7 152.456 253.607 153.012 254.958 152.695C256.191 152.403 257.662 151.695 258.199 150.471C258.336 150.188 258.412 149.879 258.421 149.565C258.43 149.251 258.373 148.938 258.253 148.648C258.133 148.357 257.953 148.095 257.725 147.879C257.497 147.662 257.226 147.497 256.929 147.393C255.136 146.793 252.424 148.875 251.437 150.24C251.382 150.321 250.83 151.267 250.521 151.87C250.659 151.486 250.797 151.113 250.935 150.716C251.211 149.94 251.463 149.152 251.738 148.301C251.857 147.892 251.983 147.47 252.102 147.061C252.221 146.651 252.315 146.193 252.422 145.752C252.658 144.73 252.839 143.676 253.007 142.617C253.69 142.857 256.11 143.678 257.396 143.578C258.681 143.478 260.222 142.998 260.933 141.871C261.11 141.612 261.231 141.32 261.287 141.012C261.343 140.704 261.334 140.387 261.261 140.083C261.187 139.779 261.05 139.494 260.859 139.246C260.667 138.998 260.426 138.793 260.15 138.645C258.466 137.797 255.471 139.424 254.29 140.624C254.217 140.699 253.467 141.654 253.07 142.19C253.163 141.57 253.261 140.914 253.334 140.264C253.543 138.406 253.702 136.487 253.892 134.587C253.941 134.005 253.997 133.429 254.053 132.847C254.295 132.937 257.157 133.977 258.59 133.862C259.826 133.763 261.417 133.282 262.134 132.161C262.312 131.902 262.433 131.609 262.49 131.3C262.546 130.991 262.537 130.674 262.462 130.369C262.388 130.064 262.25 129.778 262.057 129.53C261.865 129.281 261.622 129.077 261.345 128.929C259.66 128.081 256.672 129.709 255.485 130.909C255.4 131.002 254.32 132.381 254.064 132.742C254.186 131.467 254.315 130.198 254.5 128.946C254.734 127.26 255.079 125.591 255.535 123.951C255.646 123.993 258.639 125.093 260.097 124.972C261.333 124.872 262.923 124.398 263.635 123.271C263.812 123.012 263.932 122.719 263.989 122.41C264.045 122.102 264.036 121.785 263.962 121.48C263.889 121.176 263.752 120.89 263.56 120.641C263.369 120.393 263.128 120.188 262.852 120.038C261.167 119.191 258.173 120.818 256.992 122.024C256.912 122.099 256.095 123.147 255.711 123.658L255.618 123.61C256.118 121.972 256.764 120.382 257.546 118.858C257.963 118.013 258.413 117.229 258.868 116.476C259.409 116.736 261.883 117.909 263.213 117.944C264.543 117.98 266.086 117.679 266.91 116.637C267.114 116.4 267.267 116.123 267.357 115.823C267.448 115.523 267.473 115.207 267.433 114.896C267.393 114.586 267.288 114.287 267.125 114.02C266.961 113.752 266.743 113.523 266.485 113.345C264.897 112.317 261.751 113.606 260.438 114.647C260.371 114.703 259.71 115.372 259.214 115.866C259.427 115.53 259.634 115.175 259.822 114.858C260.595 113.662 261.381 112.615 262.083 111.692C262.491 111.168 262.864 110.706 263.218 110.276C263.885 110.269 266.55 110.148 267.713 109.609C268.876 109.071 270.17 108.049 270.403 106.742C270.475 106.438 270.482 106.122 270.424 105.815C270.366 105.507 270.244 105.216 270.067 104.958C269.889 104.701 269.66 104.484 269.393 104.32C269.126 104.157 268.829 104.051 268.519 104.01C266.661 103.832 264.438 106.429 263.768 107.976C263.708 108.106 263.045 110.302 263.082 110.302L263.119 110.302C262.771 110.707 262.398 111.15 262.002 111.637C261.275 112.548 260.464 113.583 259.66 114.754C258.773 116.021 257.961 117.339 257.229 118.701C256.406 120.224 255.719 121.816 255.177 123.46L255.177 123.516C255.172 122.965 255.155 121.419 255.123 121.302C254.889 119.629 253.458 116.546 251.599 116.219C251.289 116.174 250.972 116.194 250.67 116.279C250.367 116.364 250.086 116.512 249.845 116.713C249.604 116.914 249.408 117.164 249.27 117.446C249.131 117.728 249.054 118.036 249.043 118.349C248.946 119.68 249.925 120.999 250.874 121.824C251.941 122.759 254.894 123.636 255.124 123.714C254.616 125.399 254.221 127.116 253.942 128.853C253.767 129.863 253.63 130.891 253.505 131.919C253.5 131.443 253.495 131.01 253.495 130.955C253.26 129.281 251.823 126.198 249.965 125.872C249.654 125.827 249.338 125.848 249.037 125.934C248.735 126.019 248.455 126.167 248.215 126.368C247.974 126.569 247.779 126.818 247.641 127.1C247.503 127.381 247.426 127.689 247.415 128.002C247.318 129.332 248.297 130.651 249.245 131.476C250.194 132.301 252.701 133.121 253.365 133.331L253.23 134.513C253.027 136.408 252.825 138.302 252.579 140.154C252.487 140.804 252.376 141.443 252.272 142.087C252.267 141.66 252.263 141.302 252.263 141.246C252.028 139.579 250.591 136.49 248.733 136.169C248.422 136.124 248.106 136.144 247.804 136.229C247.502 136.314 247.222 136.462 246.981 136.663C246.74 136.864 246.544 137.114 246.407 137.396C246.269 137.678 246.193 137.986 246.183 138.299C246.086 139.624 247.065 140.943 248.013 141.774C248.962 142.605 251.227 143.341 252.015 143.586C251.886 144.237 251.757 144.894 251.603 145.52C251.484 145.942 251.402 146.357 251.258 146.761C251.114 147.164 251.001 147.598 250.875 148.001C250.599 148.784 250.317 149.591 250.028 150.348C249.836 150.876 249.637 151.373 249.426 151.876C249.519 151.257 249.678 149.956 249.677 149.851C249.642 148.367 249.226 146.917 248.469 145.64C248.476 145.477 248.463 145.313 248.433 145.152C248.392 144.841 248.286 144.542 248.121 144.275C247.957 144.008 247.738 143.778 247.478 143.602C247.219 143.425 246.925 143.306 246.616 143.251C246.307 143.196 245.99 143.207 245.686 143.283C243.867 143.791 242.745 147.025 242.651 148.689C242.653 148.788 242.72 149.87 242.783 150.543C242.686 150.148 242.595 149.766 242.492 149.359C242.291 148.551 242.073 147.755 241.847 146.892C241.719 146.479 241.584 146.066 241.456 145.659C241.328 145.253 241.151 144.815 240.998 144.39C240.628 143.405 240.204 142.426 239.729 141.454C240.432 141.273 242.93 140.61 243.923 139.832C244.917 139.055 245.961 137.788 245.934 136.459C245.94 136.145 245.879 135.834 245.756 135.546C245.634 135.257 245.451 134.997 245.221 134.784C244.992 134.571 244.719 134.408 244.423 134.307C244.126 134.206 243.811 134.168 243.498 134.197C241.646 134.421 240.026 137.425 239.704 139.08C239.705 139.185 239.588 140.398 239.546 141.066C239.268 140.482 239.002 139.897 238.705 139.313C237.846 137.634 236.925 135.962 236.017 134.289L235.19 132.746C235.443 132.687 238.422 131.963 239.538 131.085C240.526 130.308 241.57 129.047 241.549 127.712C241.554 127.399 241.492 127.088 241.369 126.8C241.246 126.512 241.064 126.252 240.834 126.039C240.604 125.826 240.333 125.663 240.036 125.562C239.74 125.46 239.425 125.422 239.113 125.45C237.26 125.674 235.641 128.684 235.319 130.339C235.32 130.462 235.153 132.196 235.139 132.654C234.54 131.522 233.946 130.391 233.409 129.246C232.674 127.709 232.037 126.128 231.503 124.511C231.62 124.509 234.735 123.74 235.876 122.844C236.869 122.066 237.913 120.8 237.887 119.47C237.892 119.157 237.831 118.846 237.709 118.557C237.586 118.268 237.403 118.009 237.174 117.795C236.944 117.582 236.672 117.419 236.375 117.318C236.078 117.217 235.763 117.18 235.451 117.208C233.598 117.432 231.979 120.436 231.656 122.091C231.657 122.202 231.529 123.533 231.493 124.165L231.388 124.166C230.898 122.523 230.559 120.84 230.375 119.136C230.254 118.198 230.201 117.283 230.161 116.418C230.778 116.343 233.464 115.949 234.582 115.257C235.701 114.565 236.833 113.452 236.955 112.14C236.994 111.829 236.968 111.513 236.877 111.212C236.786 110.912 236.634 110.634 236.429 110.397C236.224 110.16 235.971 109.968 235.688 109.834C235.404 109.701 235.095 109.628 234.782 109.621C232.89 109.641 230.978 112.451 230.501 114.064C230.471 114.151 230.289 115.068 230.172 115.743C230.168 115.348 230.163 114.933 230.159 114.556C230.144 113.128 230.223 111.822 230.297 110.665C230.346 110.003 230.401 109.427 230.463 108.857C231.004 108.474 233.17 106.911 233.832 105.803C234.494 104.696 234.997 103.163 234.496 101.925C234.384 101.631 234.212 101.364 233.991 101.141C233.77 100.918 233.504 100.745 233.211 100.631C232.919 100.518 232.605 100.467 232.291 100.482C231.978 100.498 231.671 100.579 231.391 100.721C229.724 101.605 229.321 104.986 229.599 106.646C229.601 106.813 230.255 109.014 230.286 108.995Z" fill="#263238"/>
<path d="M144.366 163.749L117.968 164.031L99.0085 174.53L127.793 174.223L144.366 163.749Z" fill="white" stroke="#263238" stroke-width="1.25474" stroke-linecap="round" stroke-linejoin="round"/>
<path d="M117.719 166.528L137.672 166.314" stroke="#263238" stroke-width="1.25474" stroke-linecap="round" stroke-linejoin="round"/>
<path d="M114.672 168.161L134.625 167.947" stroke="#263238" stroke-width="1.25474" stroke-linecap="round" stroke-linejoin="round"/>
<path d="M111.625 169.797L131.578 169.584" stroke="#263238" stroke-width="1.25474" stroke-linecap="round" stroke-linejoin="round"/>
<path d="M108.586 171.438L128.539 171.225" stroke="#263238" stroke-width="1.25474" stroke-linecap="round" stroke-linejoin="round"/>
<path d="M99.0078 174.532L99.0268 176.306L128.411 175.992L127.792 174.224L99.0078 174.532Z" fill="white" stroke="#263238" stroke-width="1.25474" stroke-linecap="round" stroke-linejoin="round"/>
<path d="M128.408 175.993L145.151 165.258L144.362 163.752L127.79 174.225L128.408 175.993Z" fill="white" stroke="#263238" stroke-width="1.25474" stroke-linecap="round" stroke-linejoin="round"/>
<path d="M99.4746 173.988C99.4277 173.81 99.4029 173.628 99.4008 173.445C99.3966 173.04 99.5124 172.643 99.7337 172.304C99.955 171.965 100.272 171.7 100.644 171.541C101.016 171.382 101.427 171.337 101.825 171.412C102.223 171.487 102.589 171.677 102.879 171.96" stroke="#263238" stroke-width="1.25474" stroke-linecap="round" stroke-linejoin="round"/>
<path d="M102.139 172.724C102.092 172.549 102.067 172.368 102.065 172.187C102.061 171.782 102.177 171.385 102.398 171.046C102.619 170.708 102.936 170.442 103.308 170.283C103.68 170.124 104.091 170.079 104.489 170.154C104.887 170.229 105.253 170.42 105.543 170.703" stroke="#263238" stroke-width="1.25474" stroke-linecap="round" stroke-linejoin="round"/>
<path d="M104.594 171.46C104.545 171.285 104.519 171.104 104.514 170.922C104.512 170.518 104.629 170.121 104.851 169.783C105.073 169.445 105.39 169.18 105.762 169.021C106.135 168.863 106.545 168.818 106.943 168.892C107.341 168.966 107.708 169.156 107.998 169.438" stroke="#263238" stroke-width="1.25474" stroke-linecap="round" stroke-linejoin="round"/>
<path d="M106.946 170.143C106.894 169.969 106.867 169.788 106.866 169.606C106.863 169.202 106.98 168.805 107.202 168.467C107.424 168.129 107.742 167.864 108.114 167.705C108.486 167.547 108.897 167.502 109.295 167.576C109.693 167.65 110.059 167.84 110.35 168.122" stroke="#263238" stroke-width="1.25474" stroke-linecap="round" stroke-linejoin="round"/>
<path d="M109.549 168.591C109.502 168.416 109.477 168.236 109.475 168.054C109.471 167.649 109.587 167.253 109.808 166.914C110.029 166.575 110.346 166.309 110.718 166.151C111.09 165.992 111.501 165.947 111.899 166.021C112.297 166.096 112.664 166.287 112.953 166.57" stroke="#263238" stroke-width="1.25474" stroke-linecap="round" stroke-linejoin="round"/>
<path d="M112.34 166.986C112.288 166.811 112.262 166.63 112.26 166.448C112.256 166.044 112.372 165.647 112.593 165.308C112.814 164.969 113.131 164.704 113.503 164.545C113.876 164.386 114.287 164.341 114.684 164.416C115.082 164.49 115.449 164.681 115.738 164.964" stroke="#263238" stroke-width="1.25474" stroke-linecap="round" stroke-linejoin="round"/>
<path d="M113.84 166.023C113.789 165.849 113.762 165.668 113.76 165.486C113.755 165.081 113.87 164.683 114.091 164.344C114.311 164.004 114.628 163.737 115.001 163.578C115.373 163.418 115.784 163.372 116.183 163.447C116.581 163.521 116.948 163.712 117.238 163.996" stroke="#263238" stroke-width="1.25474" stroke-linecap="round" stroke-linejoin="round"/>
<path d="M147.964 169.865C147.964 169.865 150.021 174.271 146.702 175.58L166.624 188.069C166.624 188.069 168.558 189.155 170.984 186.928C173.409 184.7 171.316 179.893 170.209 179.293C169.102 178.692 147.964 169.865 147.964 169.865Z" fill="white" stroke="#263238" stroke-width="1.25474" stroke-linecap="round" stroke-linejoin="round"/>
<path d="M172.653 159.53L147.159 169.629L167.757 180.54C168.839 181.267 169.743 182.227 170.403 183.35C170.525 183.635 170.621 183.93 170.691 184.232C170.819 184.794 170.78 185.381 170.578 185.921C170.376 186.461 170.021 186.931 169.556 187.271C169.091 187.612 168.537 187.81 167.961 187.839C167.385 187.869 166.813 187.73 166.316 187.439L146.703 175.608C146.703 175.608 144.891 175.627 146.979 177.157C148.712 178.412 162.018 186.31 166.243 188.738C166.671 188.986 167.149 189.134 167.642 189.172C168.135 189.209 168.63 189.135 169.09 188.955L196.9 177.347C197.307 177.072 197.651 176.716 197.913 176.302C198.175 175.887 198.348 175.422 198.42 174.937C198.574 173.971 198.402 172.981 197.933 172.122C197.464 171.264 196.724 170.584 195.828 170.191L172.653 159.53Z" fill="#263238" stroke="#263238" stroke-width="1.25474" stroke-linecap="round" stroke-linejoin="round"/>
<path d="M29.6902 36.1799L25.784 25.3932L29.6237 29.9532L26.4697 13.7472L31.2008 25.3353L32.5778 2.58129L35.5176 24.2069L38.4517 19.8404L38.5096 25.2571L41.9499 17.9107L40.1876 30.6566L43.417 28.4576L38.3475 35.5494L29.6902 36.1799Z" fill="url(#paint0_linear)"/>
<path d="M41.5716 33.3498L27.498 33.5002L30.3308 61.8925L39.3463 61.7961L41.5716 33.3498Z" fill="#263238" stroke="#263238" stroke-width="1.25474" stroke-linecap="round" stroke-linejoin="round"/>
<path d="M68.2674 61.1596L20.3145 61.6721L21.4001 163.248L69.353 162.736L68.2674 61.1596Z" fill="white" stroke="#263238" stroke-width="1.25474" stroke-linecap="round" stroke-linejoin="round"/>
<path d="M70.9024 61.1299L44.2949 61.4143L45.3806 162.99L71.9881 162.706L70.9024 61.1299Z" fill="white" stroke="#263238" stroke-width="1.25474" stroke-linecap="round" stroke-linejoin="round"/>
<path d="M67.9035 61.162L44.2949 61.4143L45.3806 162.99L68.9891 162.738L67.9035 61.162Z" fill="#263238" stroke="#263238" stroke-width="1.25474" stroke-linecap="round" stroke-linejoin="round"/>
<path d="M66.082 139.159L45.127 139.383L45.3493 160.183L66.3043 159.96L66.082 139.159Z" fill="url(#paint1_linear)" stroke="#263238" stroke-width="1.25474" stroke-linecap="round" stroke-linejoin="round"/>
<path d="M66.0976 140.284L45.1426 140.508L45.1711 143.173L66.1261 142.949L66.0976 140.284Z" fill="white" stroke="#263238" stroke-width="1.25474" stroke-linecap="round" stroke-linejoin="round"/>
<path d="M66.2616 155.597L45.3066 155.821L45.3351 158.486L66.2901 158.262L66.2616 155.597Z" fill="white" stroke="#263238" stroke-width="1.25474" stroke-linecap="round" stroke-linejoin="round"/>
<path d="M49.1113 139.77L49.3925 166.074" stroke="#263238" stroke-width="1.25474" stroke-linecap="round" stroke-linejoin="round"/>
<path d="M56.4199 139.688L56.7011 165.992" stroke="#263238" stroke-width="1.25474" stroke-linecap="round" stroke-linejoin="round"/>
<path d="M62.8301 139.621L63.1112 165.926" stroke="#263238" stroke-width="1.25474" stroke-linecap="round" stroke-linejoin="round"/>
<path d="M65.2937 64.9716L44.3379 65.1956L44.6648 95.7791L65.6206 95.5551L65.2937 64.9716Z" fill="url(#paint2_linear)" stroke="#263238" stroke-width="1.25474" stroke-linecap="round" stroke-linejoin="round"/>
<path d="M65.3046 66.2509L44.3496 66.4749L44.382 69.5046L65.337 69.2807L65.3046 66.2509Z" fill="white" stroke="#263238" stroke-width="1.25474" stroke-linecap="round" stroke-linejoin="round"/>
<path d="M65.5116 85.8505L44.5566 86.0745L44.589 89.1042L65.544 88.8803L65.5116 85.8505Z" fill="white" stroke="#263238" stroke-width="1.25474" stroke-linecap="round" stroke-linejoin="round"/>
<path d="M48.3145 65.6409L48.6339 95.5256" stroke="#263238" stroke-width="1.25474" stroke-linecap="round" stroke-linejoin="round"/>
<path d="M55.627 65.5627L55.9464 95.4475" stroke="#263238" stroke-width="1.25474" stroke-linecap="round" stroke-linejoin="round"/>
<path d="M62.0371 65.4924L62.3565 95.3772" stroke="#263238" stroke-width="1.25474" stroke-linecap="round" stroke-linejoin="round"/>
<path d="M65.6843 101.831L44.7285 102.055L45.0554 132.638L66.0112 132.414L65.6843 101.831Z" fill="url(#paint3_linear)" stroke="#263238" stroke-width="1.25474" stroke-linecap="round" stroke-linejoin="round"/>
<path d="M65.6991 103.108L44.7441 103.332L44.7765 106.362L65.7315 106.138L65.6991 103.108Z" fill="white" stroke="#263238" stroke-width="1.25474" stroke-linecap="round" stroke-linejoin="round"/>
<path d="M65.9101 122.718L44.9551 122.942L44.9875 125.971L65.9425 125.747L65.9101 122.718Z" fill="white" stroke="#263238" stroke-width="1.25474" stroke-linecap="round" stroke-linejoin="round"/>
<path d="M48.7129 102.5L49.0323 132.385" stroke="#263238" stroke-width="1.25474" stroke-linecap="round" stroke-linejoin="round"/>
<path d="M56.0215 102.422L56.3409 132.307" stroke="#263238" stroke-width="1.25474" stroke-linecap="round" stroke-linejoin="round"/>
<path d="M62.4316 102.352L62.751 132.237" stroke="#263238" stroke-width="1.25474" stroke-linecap="round" stroke-linejoin="round"/>
<path d="M68.6368 95.0994L44.6582 95.3557L44.6953 98.8307L68.674 98.5744L68.6368 95.0994Z" fill="white" stroke="#263238" stroke-width="1.25474" stroke-linecap="round" stroke-linejoin="round"/>
<path d="M69.0352 132.197L45.0566 132.453L45.0938 135.928L69.0724 135.672L69.0352 132.197Z" fill="white" stroke="#263238" stroke-width="1.25474" stroke-linecap="round" stroke-linejoin="round"/>
<path d="M68.2715 61.1604L69.3571 162.736" stroke="#263238" stroke-width="1.25474" stroke-linecap="round" stroke-linejoin="round"/>
<path d="M40.9164 61.4514L42.002 163.027L45.3782 162.991L44.333 65.1934L67.8982 64.9416L67.8574 61.1264L40.9164 61.4514Z" fill="white" stroke="#263238" stroke-width="1.25474" stroke-linecap="round" stroke-linejoin="round"/>
<path d="M44.3353 65.192L44.2949 61.4143" stroke="#263238" stroke-width="1.25474" stroke-linecap="round" stroke-linejoin="round"/>
<path d="M275.804 159.961L1.71484 162.891" stroke="#263238" stroke-width="1.25474" stroke-linecap="round" stroke-linejoin="round"/>
<path d="M143.378 119.998L100.526 120.456C95.2039 120.105 94.905 122.223 94.905 122.223L87.2907 162L140.197 161.435C140.454 159.447 144.314 130.05 145.048 125.298C145.818 120.38 143.378 119.998 143.378 119.998Z" fill="white" stroke="#263238" stroke-width="1.25474" stroke-linecap="round" stroke-linejoin="round"/>
<path d="M143.379 120L143.299 120.001C142.99 120.005 141.837 120.326 141.166 123.5C140.495 126.673 136.76 153.923 135.728 161.485L140.217 161.437C140.474 159.449 144.334 130.052 145.069 125.301C145.82 120.382 143.379 120 143.379 120Z" fill="#263238" stroke="#263238" stroke-width="1.25474" stroke-linecap="round" stroke-linejoin="round"/>
<path d="M74.3372 162.141L124.207 161.608C123.864 153.813 122.586 125.707 121.807 122.228C120.91 118.18 118.77 117.566 115.781 117.382C112.792 117.197 110.581 117.994 104.608 118.058C98.6344 118.122 92.8524 117.565 92.8524 117.565C92.8524 117.565 90.5065 117.374 89.2265 117.387C87.9466 117.401 87.1024 118.263 85.3957 118.282C82.3316 118.353 79.266 118.244 76.2149 117.953C73.0073 117.561 69.1856 119.308 68.5829 122.518C68.0561 125.307 67.0732 154.853 66.8269 162.468L74.3274 162.388L74.3372 162.141Z" fill="url(#paint4_linear)" stroke="#263238" stroke-width="1.25474" stroke-linecap="round" stroke-linejoin="round"/>
<path d="M88.3086 121.972C88.3086 121.972 90.1613 130.412 95.1121 132.468" stroke="#263238" stroke-width="1.25474" stroke-linecap="round" stroke-linejoin="round"/>
<path d="M83.7171 120.611C83.7171 120.611 81.3003 125.924 84.9138 133.634" stroke="#263238" stroke-width="1.25474" stroke-linecap="round" stroke-linejoin="round"/>
<path d="M113.07 131.225C113.07 131.225 107.591 145.723 95.3274 152.551" stroke="#263238" stroke-width="1.25474" stroke-linecap="round" stroke-linejoin="round"/>
<path d="M89.6175 112.669C89.6175 112.669 90.108 118.637 90.7813 122.044C91.4547 125.45 95.1072 127.563 99.1496 126.221C103.192 124.879 104.863 122.11 105.059 120.184C105.255 118.259 105.171 111.012 105.171 111.012C105.171 111.012 98.8045 115.347 89.6175 112.669Z" fill="white" stroke="#263238" stroke-width="1.25474" stroke-linecap="round" stroke-linejoin="round"/>
<path d="M111.145 78.4529C111.145 78.4529 111.718 77.6737 110.148 75.3714C108.577 73.0691 104.888 71.5625 104.888 71.5625L107.239 74.6295C107.239 74.6295 100.635 71.2246 97.9271 71.2535C95.2188 71.2824 88.452 72.3195 88.452 72.3195L91.7437 73.0573C91.7437 73.0573 83.6578 75.6546 82.7055 76.8212C81.7532 77.9878 77.157 81.9082 78.1216 81.8979C79.0863 81.8876 83.9073 81.0631 83.9073 81.0631C83.9073 81.0631 79.1276 85.7523 79.1482 87.6815C79.1688 89.6108 83.516 98.8406 83.516 98.8406C83.516 98.8406 86.4718 104.028 87.4095 101.501C88.3473 98.9745 86.7375 93.0116 86.9291 92.4282C87.1208 91.8449 98.3088 90.7605 100.819 90.7337C103.33 90.7069 103.01 96.7028 103.985 97.6571C104.96 98.6114 109.641 100.293 110.396 100.285C111.15 100.277 112.517 99.6871 112.508 98.9141C112.538 97.2591 112.847 95.6209 113.421 94.0683C114.173 92.1247 115.119 90.3768 115.286 88.0559C115.453 85.7351 114.05 80.5368 114.05 80.5368L115.787 80.5182C115.787 80.5182 114.037 77.6489 111.145 78.4529Z" fill="#263238" stroke="#263238" stroke-width="1.25474" stroke-linecap="round" stroke-linejoin="round"/>
<path d="M84.4954 97.4711C84.4954 97.4711 83.4854 93.8147 81.7747 96.3438C80.6728 97.9758 83.599 104.438 85.149 104.811C86.699 105.184 84.4954 97.4711 84.4954 97.4711Z" fill="white" stroke="#263238" stroke-width="1.25474" stroke-linecap="round" stroke-linejoin="round"/>
<path d="M84.4172 90.1361C84.4172 90.1361 84.5679 104.241 85.5697 107.705C86.5715 111.17 90.4919 116.348 96.0942 116.288C101.696 116.228 105.53 113.287 107.053 111.149C108.576 109.012 109.298 104.749 109.298 104.749C109.298 104.749 111.056 106.085 113.15 103.546C115.244 101.006 115.506 96.5384 114.615 95.9976C113.059 95.0495 111.334 96.2243 110.569 97.0055L109.04 98.5679C109.04 98.5679 106.511 96.8572 106.486 94.5384C106.461 92.2196 106.806 87.9674 106.806 87.9674L105.074 89.1423L105.255 87.5943C105.255 87.5943 104.87 87.9881 102.551 88.0128C100.232 88.0376 94.6343 88.4809 94.6343 88.4809L97.4931 84.5852C97.4931 84.5852 91.9178 87.1618 90.0009 88.3387C88.084 89.5156 84.4172 90.1361 84.4172 90.1361Z" fill="white" stroke="#263238" stroke-width="1.25474" stroke-linecap="round" stroke-linejoin="round"/>
<path d="M91.7657 98.5218C91.7769 99.5667 91.3718 100.424 90.8586 100.43C90.3454 100.435 89.9221 99.5865 89.9109 98.5416C89.8997 97.4968 90.3049 96.6391 90.818 96.6336C91.3312 96.6282 91.7546 97.4769 91.7657 98.5218Z" fill="#263238"/>
<path d="M100.711 98.6859C100.722 99.7308 100.317 100.582 99.8039 100.588C99.2907 100.593 98.8674 99.7506 98.8562 98.7057C98.8451 97.6608 99.2502 96.8032 99.7634 96.7977C100.277 96.7922 100.7 97.6348 100.711 98.6859Z" fill="#263238"/>
<path d="M93.3594 102.987C93.3594 102.987 93.3884 105.702 96.7449 105.016" stroke="#263238" stroke-width="1.25474" stroke-linecap="round" stroke-linejoin="round"/>
<path d="M92.3803 107.898C92.3803 107.898 95.1124 109.545 98.8461 107.699" stroke="#263238" stroke-width="1.25474" stroke-linecap="round" stroke-linejoin="round"/>
<path d="M87.4541 94.9021C87.7783 94.2966 88.301 93.8212 88.9343 93.5555C89.5675 93.2897 90.273 93.2499 90.9321 93.4427" stroke="#263238" stroke-width="1.25474" stroke-linecap="round" stroke-linejoin="round"/>
<path d="M97.9122 93.3667C97.9122 93.3667 100.994 92.4309 102.191 94.4896" stroke="#263238" stroke-width="1.25474" stroke-linecap="round" stroke-linejoin="round"/>
<path d="M68.9522 121.282L60.6341 144.976C60.6341 144.976 55.1858 149.023 54.6094 150.062C53.1591 152.656 55.1213 156.296 56.9164 158.188C59.7434 161.157 65.4306 161.523 68.8077 159.261C71.0244 157.778 72.3035 154.796 73.1184 152.344L73.7995 131.595" fill="url(#paint5_linear)"/>
<path d="M68.9522 121.282L60.6341 144.976C60.6341 144.976 55.1858 149.023 54.6094 150.062C53.1591 152.656 55.1213 156.296 56.9164 158.188C59.7434 161.157 65.4306 161.523 68.8077 159.261C71.0244 157.778 72.3035 154.796 73.1184 152.344L73.7995 131.595" stroke="#263238" stroke-width="1.25474" stroke-linecap="round" stroke-linejoin="round"/>
<path d="M56.9492 147.088C56.9492 147.088 61.307 143.424 68.5921 147.483" stroke="#263238" stroke-width="1.25474" stroke-linecap="round" stroke-linejoin="round"/>
<path d="M60.7605 148.817L66.5798 149.992C66.5798 149.992 72.1205 147.663 72.6359 150.181C73.1513 152.698 69.3939 153.499 68.3798 153.51C67.3658 153.521 64.8465 153.294 63.8413 153.558C62.8362 153.823 61.5882 155.091 59.3217 155.369C59.3217 155.369 53.0417 157.959 50.5028 156.471C47.9638 154.984 49.923 149.675 53.1874 147.866C56.4517 146.056 60.7605 148.817 60.7605 148.817Z" fill="white" stroke="#263238" stroke-width="1.25474" stroke-linecap="round" stroke-linejoin="round"/>
<path d="M47.8532 150.823C47.8532 150.823 45.3643 149.378 44.6053 151.26C43.8463 153.142 41.6237 157.512 43.0354 157.108C44.4471 156.703 47.8532 150.823 47.8532 150.823Z" fill="white" stroke="#263238" stroke-width="1.25474" stroke-linecap="round" stroke-linejoin="round"/>
<path d="M51.681 148.161C51.681 148.161 47.6076 147.766 47.1442 148.964C46.2899 151.193 45.2174 157.315 46.9912 157.797C48.7651 158.279 49.2255 154.495 50.209 152.197C50.783 150.883 51.2746 149.536 51.681 148.161Z" fill="white" stroke="#263238" stroke-width="1.25474" stroke-linecap="round" stroke-linejoin="round"/>
<path d="M53.9183 145.614C53.9183 145.614 50.8856 145.393 49.8994 147.426C48.9131 149.459 48.412 157.547 49.389 157.536C50.366 157.526 50.1272 158.326 51.6072 155.039C52.3321 153.429 53.3888 148.149 53.3888 148.149L53.9183 145.614Z" fill="white" stroke="#263238" stroke-width="1.25474" stroke-linecap="round" stroke-linejoin="round"/>
<path d="M61.5017 149.495C61.5017 149.495 57.4458 146.112 56.3822 145.536C55.3185 144.96 54.5987 144.726 53.429 145.802C52.2593 146.879 52.0647 150.659 51.1501 153.031C50.2354 155.404 49.3096 157.887 50.4907 157.874C51.6717 157.862 52.729 157.263 53.6553 155.985C54.5817 154.708 56.3129 150.051 56.3129 150.051" fill="white"/>
<path d="M61.5017 149.495C61.5017 149.495 57.4458 146.112 56.3822 145.536C55.3185 144.96 54.5987 144.726 53.429 145.802C52.2593 146.879 52.0647 150.659 51.1501 153.031C50.2354 155.404 49.3096 157.887 50.4907 157.874C51.6717 157.862 52.729 157.263 53.6553 155.985C54.5817 154.708 56.3129 150.051 56.3129 150.051" stroke="#263238" stroke-width="1.25474" stroke-linecap="round" stroke-linejoin="round"/>
<path d="M55.7459 152.39C55.7459 152.39 57.1683 152.993 59.1635 151.642L55.7459 152.39Z" fill="white"/>
<path d="M55.7459 152.39C55.7459 152.39 57.1683 152.993 59.1635 151.642" stroke="#263238" stroke-width="1.25474" stroke-linecap="round" stroke-linejoin="round"/>
<path d="M114.791 117.226C114.791 117.226 119.61 116.247 121.979 118.572C124.348 120.897 131.282 138.447 133.696 144.42C136.11 150.393 138.499 154.61 137.888 157.604C137.276 160.597 132.366 161.713 128.763 161.968C124.666 162.253 121.936 159.691 121.927 158.838C121.918 157.984 120.401 156.084 123.107 149.438L121.033 135.378" fill="url(#paint6_linear)"/>
<path d="M114.791 117.226C114.791 117.226 119.61 116.247 121.979 118.572C124.348 120.897 131.282 138.447 133.696 144.42C136.11 150.393 138.499 154.61 137.888 157.604C137.276 160.597 132.366 161.713 128.763 161.968C124.666 162.253 121.936 159.691 121.927 158.838C121.918 157.984 120.401 156.084 123.107 149.438L121.033 135.378" stroke="#263238" stroke-width="1.25474" stroke-linecap="round" stroke-linejoin="round"/>
<path d="M127.748 150.337C127.748 150.337 123.673 148.618 122.993 148.626C122.431 149.321 122.108 150.179 122.073 151.072C122.087 152.426 122.283 157.971 122.96 158.236C123.637 158.501 125.658 157.261 126.992 155.355C128.326 153.448 128.563 150.731 127.748 150.337Z" fill="white" stroke="#263238" stroke-width="1.25474" stroke-linecap="round" stroke-linejoin="round"/>
<path d="M124.694 142.804L122.593 161.483L123.447 164.461L124.774 161.874L127.009 143.039C127.039 142.735 126.948 142.432 126.755 142.196C126.563 141.959 126.285 141.808 125.982 141.776C125.829 141.757 125.675 141.768 125.527 141.81C125.379 141.852 125.241 141.922 125.121 142.018C125.001 142.114 124.901 142.233 124.828 142.368C124.755 142.503 124.709 142.651 124.694 142.804Z" fill="white" stroke="#263238" stroke-width="1.25474" stroke-linecap="round" stroke-linejoin="round"/>
<path d="M124.762 161.872L122.594 161.487L123.436 164.459L124.762 161.872Z" fill="white" stroke="#263238" stroke-width="1.25474" stroke-linecap="round" stroke-linejoin="round"/>
<path d="M125.97 141.776C125.818 141.759 125.664 141.772 125.517 141.815C125.371 141.858 125.234 141.929 125.115 142.025C124.996 142.122 124.898 142.241 124.826 142.375C124.754 142.51 124.709 142.658 124.694 142.81L124.423 145.224L126.685 145.652L126.997 143.039C127.027 142.735 126.936 142.433 126.743 142.196C126.551 141.96 126.273 141.809 125.97 141.776Z" fill="white" stroke="#263238" stroke-width="1.25474" stroke-linecap="round" stroke-linejoin="round"/>
<path d="M122.992 148.627C122.318 148.635 120.983 150.411 120.183 151.366C119.383 152.321 119.67 154.346 120.362 155.965C121.053 157.584 121.363 160.556 122.175 160.683C122.986 160.81 123.658 159.993 123.642 158.503C123.626 157.013 123.32 153.905 123.32 153.905" fill="white"/>
<path d="M122.992 148.627C122.318 148.635 120.983 150.411 120.183 151.366C119.383 152.321 119.67 154.346 120.362 155.965C121.053 157.584 121.363 160.556 122.175 160.683C122.986 160.81 123.658 159.993 123.642 158.503C123.626 157.013 123.32 153.905 123.32 153.905" stroke="#263238" stroke-width="1.25474" stroke-linecap="round" stroke-linejoin="round"/>
<path d="M132.156 158.14C132.156 158.14 133.135 160.701 132.068 162.067C131 163.433 127.47 162.926 126.79 162.395C126.111 161.865 129.755 160.874 132.156 158.14Z" fill="white" stroke="#263238" stroke-width="1.25474" stroke-linecap="round" stroke-linejoin="round"/>
<path d="M131.734 155.713C132.098 156.106 132.344 156.593 132.444 157.119C132.545 157.645 132.496 158.188 132.304 158.688C131.649 160.451 129.247 161.967 127.469 162.258C125.692 162.549 124.216 161.612 125.026 161.047C125.836 160.482 129.858 157.762 131.734 155.713Z" fill="white" stroke="#263238" stroke-width="1.25474" stroke-linecap="round" stroke-linejoin="round"/>
<path d="M130.071 152.751C130.071 152.751 131.714 154.218 131.729 155.708C131.745 157.198 127.856 160.759 125.972 161.453C124.087 162.147 123.127 161.483 123.658 160.241C124.189 158.998 129.535 152.874 129.535 152.874C129.535 152.874 129.258 152.488 130.071 152.751Z" fill="white" stroke="#263238" stroke-width="1.25474" stroke-linecap="round" stroke-linejoin="round"/>
<path d="M125.473 152.8C125.473 152.8 122.554 157.971 122.163 159.601C121.772 161.232 123.263 161.216 124.201 160.526C125.14 159.835 129.553 154.377 130.074 152.751C130.594 151.125 129.636 149.373 127.876 149.683C126.117 149.992 125.473 152.8 125.473 152.8Z" fill="white" stroke="#263238" stroke-width="1.25474" stroke-linecap="round" stroke-linejoin="round"/>
<path d="M232.727 160.409C233.536 153.993 236.78 128.282 237.452 123.989C238.215 119.071 235.756 118.689 235.756 118.689L192.923 119.147C187.601 118.795 187.302 120.914 187.302 120.914L179.901 160.973L232.727 160.409Z" fill="white" stroke="#263238" stroke-width="1.25474" stroke-linecap="round" stroke-linejoin="round"/>
<path d="M232.725 160.408C233.535 153.993 236.779 128.282 237.45 123.989C238.214 119.07 235.755 118.688 235.755 118.688L235.674 118.689C235.365 118.693 234.212 119.014 233.547 122.188C232.911 125.194 229.486 151.297 228.248 160.456L232.725 160.408Z" fill="#263238" stroke="#263238" stroke-width="1.25474" stroke-linecap="round" stroke-linejoin="round"/>
<path d="M145.414 161.341C148.641 157.732 158.926 146.243 161.526 143.58C164.627 140.412 166.982 137.406 166.982 137.406L168.132 161.098L217.798 160.567C217.739 160.246 214.747 142.455 212.254 130.212C209.735 117.871 207.222 106.098 201.775 98.6983C196.328 91.2984 180.281 83.8634 180.281 83.8634L166.674 94.726C166.674 94.726 162.7 99.5427 161.556 104.181C160.412 108.819 157.551 120.63 156.259 125.264C155.067 129.512 140.122 156.852 137.623 161.399L145.414 161.341Z" fill="url(#paint7_linear)" stroke="#263238" stroke-width="1.25474" stroke-linecap="round" stroke-linejoin="round"/>
<path d="M201.045 119.883C203.827 132.506 206.282 144.118 208.857 156.428" stroke="#263238" stroke-width="1.25474" stroke-linecap="round" stroke-linejoin="round"/>
<path d="M190.045 123.68C192.204 134.17 193.881 145.803 196.025 156.615" stroke="#263238" stroke-width="1.25474" stroke-linecap="round" stroke-linejoin="round"/>
<path d="M177.775 101.059C179.656 119.591 181.4 138.174 183.725 156.653" stroke="#263238" stroke-width="1.25474" stroke-linecap="round" stroke-linejoin="round"/>
<path d="M166.768 106.199C168.808 123.567 170.541 139.844 172.912 156.875" stroke="#263238" stroke-width="1.25474" stroke-linecap="round" stroke-linejoin="round"/>
<path d="M162.792 109.922C162.792 109.922 158.017 132.39 155.404 138.448" stroke="#263238" stroke-width="1.25474" stroke-linecap="round" stroke-linejoin="round"/>
<path d="M164.311 126.966C164.311 126.966 161.439 139.365 159.145 144.083" stroke="#263238" stroke-width="1.25474" stroke-linecap="round" stroke-linejoin="round"/>
<path d="M180.654 90.3242L188.403 95.5901" stroke="#263238" stroke-width="1.25474" stroke-linecap="round" stroke-linejoin="round"/>
<path d="M166.984 137.406L164.232 117.152" stroke="#263238" stroke-width="1.25474" stroke-linecap="round" stroke-linejoin="round"/>
<path d="M145.413 161.341C148.469 157.913 157.886 147.399 161.017 144.113C158.352 142.41 153.807 139.515 150.601 137.527C146.114 146.467 139.286 158.525 137.635 161.424L145.413 161.341Z" fill="white" stroke="#263238" stroke-width="1.25474" stroke-linecap="round" stroke-linejoin="round"/>
<path d="M148.524 141.481C148.524 141.481 157.247 147.652 157.989 147.644C158.731 147.636 163.013 143.261 163.301 142.368C163.588 141.474 152.776 134.274 152.157 134.281C151.539 134.287 148.502 139.397 148.524 141.481Z" fill="white" stroke="#263238" stroke-width="1.25474" stroke-linecap="round" stroke-linejoin="round"/>
<path d="M168.814 99.5L170.472 115.146L173.149 114.524L172.816 111.095" stroke="#263238" stroke-width="1.25474" stroke-linecap="round" stroke-linejoin="round"/>
<path d="M162.527 97.324L161.845 103.447L167.305 97.7244L162.527 97.324Z" fill="white" stroke="#263238" stroke-width="1.25474" stroke-linecap="round" stroke-linejoin="round"/>
<path d="M165.603 92.2205L162.529 97.3244L171.066 100.517L173.38 94.2276L165.603 92.2205Z" fill="white" stroke="#263238" stroke-width="1.25474" stroke-linecap="round" stroke-linejoin="round"/>
<path d="M142.715 58.1569C142.715 58.1569 141.603 65.7815 142.064 67.2669C142.526 68.7524 144.486 70.5249 144.649 71.8651C144.812 73.2053 141.287 77.8626 142.339 79.0449C143.39 80.2272 145.644 81.0998 145.644 81.0998C145.644 81.0998 150.247 92.8377 152.336 93.2606C154.424 93.6836 161.108 90.0377 161.108 90.0377C161.108 90.0377 169.537 97.5541 169.993 97.9822C170.449 98.4102 178.616 81.4833 178.616 81.4833C178.616 81.4833 174.828 74.2141 174.823 73.7627C174.819 73.3113 180.467 57.2957 180.095 50.8867C179.724 44.4777 161.317 38.4098 157.594 39.0433C153.872 39.6768 146.016 44.1144 146.016 44.1144C146.016 44.1144 148.823 41.6973 146.437 41.8712C144.052 42.0451 136.949 47.4951 137.301 52.1109C137.654 56.7268 142.715 58.1569 142.715 58.1569Z" fill="white" stroke="#263238" stroke-width="1.25474" stroke-linecap="round" stroke-linejoin="round"/>
<path d="M168.485 82.1985C169.93 78.0087 166.562 70.1351 166.84 68.3449C167.118 66.5547 168.568 62.2103 171.252 62.1816C173.935 62.1529 173.547 67.525 173.275 69.7665C173.008 71.3482 172.467 72.8712 171.678 74.2671C171.678 74.2671 173.43 73.933 174.819 73.7017C175.145 72.3563 180.437 57.1175 180.08 50.9062C179.714 44.4971 161.301 38.4294 157.579 39.0628C153.856 39.6963 146 44.1339 146 44.1339C146 44.1339 148.807 41.7168 146.422 41.8908C144.036 42.0647 136.933 47.5146 137.286 52.1305C137.638 56.7463 142.718 58.1886 142.718 58.1886C142.718 58.1886 152.215 53.3191 155.648 52.8309C159.081 52.3428 154.644 56.1254 154.364 58.2187C154.083 60.312 159.35 61.8759 161.286 63.661C163.222 65.4461 164.557 76.9035 163.398 79.5998C162.24 82.2961 156.549 81.015 153.854 79.9987C151.159 78.9824 145.66 81.1314 145.66 81.1314C145.66 81.1314 150.263 92.8692 152.351 93.2922C153.498 93.5273 156.01 92.5357 158.054 91.5986L161.129 90.0692C161.129 90.0692 167.033 86.3945 168.485 82.1985Z" fill="#263238" stroke="#263238" stroke-width="1.25474" stroke-linecap="round" stroke-linejoin="round"/>
<path d="M149.256 71.5053C149.501 72.4611 149.411 73.3092 149.053 73.4058C148.696 73.5024 148.2 72.7966 147.954 71.8346C147.709 70.8726 147.799 70.0307 148.157 69.9341C148.514 69.8375 149.004 70.5434 149.256 71.5053Z" fill="#263238"/>
<path d="M147.906 83.7576C147.906 83.7576 150.886 83.7258 152.506 81.3217" stroke="#7D7D7D" stroke-width="1.25474" stroke-linecap="round" stroke-linejoin="round"/>
<path d="M145.358 67.8241C145.358 67.8241 145.781 65.7357 149.525 67.1612" stroke="#263238" stroke-width="2.50947" stroke-linecap="round" stroke-linejoin="round"/>
<path d="M177.99 78.9682L167.916 99.2115L173.505 106.016L182.667 83.6924L177.99 78.9682Z" fill="white" stroke="#263238" stroke-width="1.25474" stroke-linecap="round" stroke-linejoin="round"/>
<path d="M190.266 96.8804C190.266 96.8804 185.634 96.3115 183.861 97.6971C182.089 99.0828 173.216 120.631 173.216 120.631C175.943 121.39 178.394 122.918 180.276 125.032C183.145 128.434 185.325 134.527 185.325 134.527C185.325 134.527 197.25 119.632 199.447 116.324" fill="url(#paint8_linear)"/>
<path d="M190.266 96.8804C190.266 96.8804 185.634 96.3115 183.861 97.6971C182.089 99.0828 173.216 120.631 173.216 120.631C175.943 121.39 178.394 122.918 180.276 125.032C183.145 128.434 185.325 134.527 185.325 134.527C185.325 134.527 197.25 119.632 199.447 116.324" stroke="#263238" stroke-width="1.25474" stroke-linecap="round" stroke-linejoin="round"/>
<path d="M191.129 99.9152C191.129 99.9152 187.12 100.292 185.803 102.65C184.486 105.008 174.339 126.526 174.339 126.526L178.707 130.159C178.707 130.159 187.537 110.992 190.179 107.618C191.911 105.529 194.223 103.998 196.823 103.219" stroke="#263238" stroke-width="1.25474" stroke-linecap="round" stroke-linejoin="round"/>
<path d="M197.591 109.882L183.087 130.444" stroke="#263238" stroke-width="1.25474" stroke-linecap="round" stroke-linejoin="round"/>
<path d="M170.967 119.617C170.967 119.617 166.969 122.195 166.999 125.027C167.03 127.859 170.679 134.263 174.589 137.313C178.499 140.364 181.921 139.474 183.873 138.111C185.825 136.748 190.56 135.949 190.799 130.579C191.038 125.209 183.653 117.527 180.507 116.515C177.361 115.504 170.967 119.617 170.967 119.617Z" fill="white" stroke="#263238" stroke-width="1.25474" stroke-linecap="round" stroke-linejoin="round"/>
<path d="M105.533 138.051C105.533 138.051 103.91 139.559 102.278 140.77C100.646 141.981 98.8749 142.896 100.373 143.629C101.871 144.361 103.504 143.743 105.145 143.423C106.787 143.102 108.717 142.643 108.835 141.448C108.952 140.253 108.654 136.688 105.533 138.051Z" fill="white" stroke="#263238" stroke-width="1.25474" stroke-linecap="round" stroke-linejoin="round"/>
<path d="M181.447 136.658C181.447 136.658 183.789 132.452 181.506 128.303C179.223 124.153 174.874 122.257 172.165 122.286C169.457 122.315 123.83 135.629 123.83 135.629C123.83 135.629 109.919 131.9 108.281 132.517C106.642 133.135 96.8617 138.601 94.6344 139.67C92.4072 140.739 92.4215 142.081 93.4681 142.218C94.5147 142.355 97.1703 141.436 98.5258 140.97C99.8813 140.504 104.322 138.824 104.322 138.824C103.958 139.898 103.67 140.997 103.461 142.111C103.467 142.729 107.671 144.905 108.438 144.896C109.204 144.888 111.726 145.307 113.507 144.694C115.287 144.081 112.731 141.567 112.731 141.567L115.846 140.192C115.846 140.192 118.998 141.797 121.68 141.62C123.132 141.572 124.554 141.199 125.843 140.53C125.843 140.53 174.307 138.67 181.447 136.658Z" fill="white" stroke="#263238" stroke-width="1.25474" stroke-linecap="round" stroke-linejoin="round"/>
<path d="M107.047 137.456C107.047 137.456 105.151 141.186 105.605 141.942C106.058 142.698 109.963 144.734 109.963 144.734" stroke="#263238" stroke-width="1.25474" stroke-linecap="round" stroke-linejoin="round"/>
<path d="M110.142 137.57C110.142 137.57 108.24 141.301 108.848 142.055C109.456 142.809 113.496 144.695 113.496 144.695" stroke="#263238" stroke-width="1.25474" stroke-linecap="round" stroke-linejoin="round"/>
<path d="M104.348 138.826L104.631 137.481" stroke="#263238" stroke-width="1.25474" stroke-linecap="round" stroke-linejoin="round"/>
<path d="M101.31 161.399L51.3355 161.933L32.3757 172.438L84.7313 171.879L101.31 161.399Z" fill="white" stroke="#263238" stroke-width="1.25474" stroke-linecap="round" stroke-linejoin="round"/>
<path d="M54.6367 164.594L91.5336 164.199" stroke="#263238" stroke-width="1.25474" stroke-linecap="round" stroke-linejoin="round"/>
<path d="M51.9648 166.539L88.8617 166.144" stroke="#263238" stroke-width="1.25474" stroke-linecap="round" stroke-linejoin="round"/>
<path d="M49.293 168.492L86.196 168.098" stroke="#263238" stroke-width="1.25474" stroke-linecap="round" stroke-linejoin="round"/>
<path d="M91.7277 164.196L81.2156 169.497" stroke="#263238" stroke-width="1.25474" stroke-linecap="round" stroke-linejoin="round"/>
<path d="M85.9621 164.258L75.45 169.559" stroke="#263238" stroke-width="1.25474" stroke-linecap="round" stroke-linejoin="round"/>
<path d="M23.0508 136.586L75.4125 136.026L84.7318 171.875L32.3763 172.435L23.0508 136.586Z" fill="#263238" stroke="#263238" stroke-width="1.25474" stroke-linecap="round" stroke-linejoin="round"/>
<path d="M32.3961 174.989L84.7578 174.429L84.7305 171.876L32.3688 172.435L32.3961 174.989Z" fill="white" stroke="#263238" stroke-width="1.25474" stroke-linecap="round" stroke-linejoin="round"/>
<path d="M22.4688 136.594L74.8305 136.034L84.156 171.883L31.7942 172.443L22.4688 136.594Z" fill="white" stroke="#263238" stroke-width="1.25474" stroke-linecap="round" stroke-linejoin="round"/>
<path d="M84.7312 171.875L101.31 161.396L101.332 163.511L84.7585 174.429L84.7312 171.875Z" fill="#263238" stroke="#263238" stroke-width="1.25474" stroke-linecap="round" stroke-linejoin="round"/>
<path d="M55.5746 153.122C55.6627 153.657 55.5937 154.206 55.3757 154.703C55.1578 155.199 54.8004 155.622 54.3469 155.919C53.8935 156.217 53.3634 156.376 52.8211 156.378C52.2788 156.38 51.7475 156.224 51.2919 155.93C50.8363 155.636 50.4758 155.216 50.2543 154.721C50.0327 154.226 49.9597 153.678 50.044 153.142C50.1282 152.606 50.3662 152.106 50.729 151.703C51.0918 151.3 51.5638 151.011 52.0878 150.871C52.8484 150.709 53.642 150.856 54.2954 151.277C54.9487 151.699 55.4086 152.362 55.5746 153.122V153.122Z" stroke="#263238" stroke-width="1.25474" stroke-linecap="round" stroke-linejoin="round"/>
<defs>
<linearGradient id="paint0_linear" x1="26.9614" y1="7.09704" x2="39.861" y2="8.53001" gradientUnits="userSpaceOnUse">
<stop stop-color="#F99C3E"/>
<stop offset="1" stop-color="#FF564D"/>
</linearGradient>
<linearGradient id="paint1_linear" x1="46.791" y1="142.127" x2="61.5863" y2="145.426" gradientUnits="userSpaceOnUse">
<stop stop-color="#F99C3E"/>
<stop offset="1" stop-color="#FF564D"/>
</linearGradient>
<linearGradient id="paint2_linear" x1="46.0159" y1="69.2377" x2="61.2251" y2="71.4946" gradientUnits="userSpaceOnUse">
<stop stop-color="#F99C3E"/>
<stop offset="1" stop-color="#FF564D"/>
</linearGradient>
<linearGradient id="paint3_linear" x1="46.4066" y1="106.097" x2="61.6158" y2="108.354" gradientUnits="userSpaceOnUse">
<stop stop-color="#F99C3E"/>
<stop offset="1" stop-color="#FF564D"/>
</linearGradient>
<linearGradient id="paint4_linear" x1="70.8874" y1="123.535" x2="110.175" y2="134.772" gradientUnits="userSpaceOnUse">
<stop stop-color="#F99C3E"/>
<stop offset="1" stop-color="#FF564D"/>
</linearGradient>
<linearGradient id="paint5_linear" x1="55.3864" y1="126.655" x2="69.9959" y2="128.215" gradientUnits="userSpaceOnUse">
<stop stop-color="#F99C3E"/>
<stop offset="1" stop-color="#FF564D"/>
</linearGradient>
<linearGradient id="paint6_linear" x1="116.629" y1="123.011" x2="133.337" y2="124.793" gradientUnits="userSpaceOnUse">
<stop stop-color="#F99C3E"/>
<stop offset="1" stop-color="#FF564D"/>
</linearGradient>
<linearGradient id="paint7_linear" x1="143.162" y1="94.4948" x2="199.582" y2="107.501" gradientUnits="userSpaceOnUse">
<stop stop-color="#F99C3E"/>
<stop offset="1" stop-color="#FF564D"/>
</linearGradient>
<linearGradient id="paint8_linear" x1="175.066" y1="101.912" x2="194.12" y2="104.789" gradientUnits="userSpaceOnUse">
<stop stop-color="#F99C3E"/>
<stop offset="1" stop-color="#FF564D"/>
</linearGradient>
</defs>
</svg>
